<?xml version="1.0" encoding="UTF-8"?>
<!DOCTYPE svg PUBLIC "-//W3C//DTD SVG 1.1//EN" "http://www.w3.org/Graphics/SVG/1.1/DTD/svg11.dtd">
<!-- Creator: CorelDRAW 2018 (64-Bit) -->
<svg xmlns="http://www.w3.org/2000/svg" xml:space="preserve" width="8.0264mm" height="8.0264mm" version="1.1" style="shape-rendering:geometricPrecision; text-rendering:geometricPrecision; image-rendering:optimizeQuality; fill-rule:evenodd; clip-rule:evenodd"
viewBox="0 0 2.88 2.88"
 xmlns:xlink="http://www.w3.org/1999/xlink">
 <defs>
  <style type="text/css">
   <![CDATA[
    .fil0 {fill:#23A328}
    .fil1 {fill:white}
   ]]>
  </style>
 </defs>
 <g id="Слой_x0020_1">
  <metadata id="CorelCorpID_0Corel-Layer"/>
  <circle class="fil0" transform="matrix(-3.34764E-14 -1.264 -1.264 3.34764E-14 1.43967 1.43967)" r="1.14"/>
  <path class="fil1" d="M1.69 0.95l0.03 0.03c0.01,0.01 0.02,0.02 0.02,0.04 0,0.01 -0.01,0.03 -0.02,0.04l-0.38 0.38 0.38 0.38c0.01,0.01 0.02,0.02 0.02,0.04 0,0.01 -0.01,0.03 -0.02,0.04l-0.03 0.03c-0.02,0.02 -0.06,0.02 -0.08,0l-0.45 -0.45c-0.01,-0.01 -0.02,-0.02 -0.02,-0.04l0 -0c0,-0.01 0.01,-0.03 0.02,-0.04l0.45 -0.45c0.01,-0.01 0.02,-0.02 0.04,-0.02 0.01,0 0.03,0.01 0.04,0.02z"/>
 </g>
</svg>
