<?xml version="1.0" encoding="UTF-8"?>
<!DOCTYPE svg PUBLIC "-//W3C//DTD SVG 1.1//EN" "http://www.w3.org/Graphics/SVG/1.1/DTD/svg11.dtd">
<!-- Creator: CorelDRAW 2018 (64-Bit) -->
<svg xmlns="http://www.w3.org/2000/svg" xml:space="preserve" width="230.669mm" height="49.6728mm" version="1.1" style="shape-rendering:geometricPrecision; text-rendering:geometricPrecision; image-rendering:optimizeQuality; fill-rule:evenodd; clip-rule:evenodd"
viewBox="0 0 3177.98 684.35"
 xmlns:xlink="http://www.w3.org/1999/xlink">
 <defs>
  <style type="text/css">
   <![CDATA[
    .fil0 {fill:#E5F6FE}
   ]]>
  </style>
 </defs>
 <g id="Слой_x0020_1">
  <metadata id="CorelCorpID_0Corel-Layer"/>
  <path class="fil0" d="M-0 431.85c238.05,-147.94 530.56,-86.86 709.51,126.75 34.27,-14.45 128.6,-114.81 304.53,-61.81 91.17,27.46 168.04,100.59 205.74,187.56 36.89,-35.82 50.7,-63.33 115.34,-93.1 54.97,-25.32 115.43,-31.6 181.1,-20.19 63.51,-155.08 243.91,-215.98 369.34,-89.72 113.95,-128.84 320.66,-178.8 466.36,-75.17 209.41,-181.82 556.36,-236.46 826.06,99.72 0,-97.27 0,-194.54 0,-291.81 -170.19,-135.01 -352.87,-182.22 -565.47,-129.1 -96.47,24.1 -149.02,66.82 -226.4,118.64 -71.75,-66.34 -150.98,-98.54 -267.28,-63.18 -89.15,-115.22 -305.16,-34.97 -306.16,77.75 -161.07,-5.33 -277.16,30.4 -353.2,181.36 -17.41,34.57 -13.59,41.33 -20.99,56.76 -59.93,-46.1 -200.97,-103.92 -330.46,-9.72 -47.05,-39.57 -86.2,-71.05 -190.17,-81.97 -93.48,-9.82 -153.48,23.51 -218.04,57.67 -2.93,-35.26 -41.26,-77.22 -65.08,-95.29 -33.47,-25.39 -72.21,-35.92 -129.31,-35.92 -20.2,-38.18 -18.92,-37.47 -47.81,-73.68 -114.57,-143.62 -355.8,-119.87 -457.6,32.13l0 182.31zm2305.85 -431.85c17.87,0 32.37,14.49 32.37,32.37 0,17.88 -14.49,32.37 -32.37,32.37 -17.88,0 -32.37,-14.49 -32.37,-32.37 0,-17.87 14.49,-32.37 32.37,-32.37zm-799.48 8.02c11.19,0 20.26,9.07 20.26,20.26 0,11.19 -9.07,20.26 -20.26,20.26 -11.19,0 -20.26,-9.07 -20.26,-20.26 0,-11.19 9.07,-20.26 20.26,-20.26zm-534.54 126.85c27.78,0 50.3,22.52 50.3,50.3 0,27.78 -22.52,50.3 -50.3,50.3 -27.78,0 -50.3,-22.52 -50.3,-50.3 0,-27.78 22.52,-50.3 50.3,-50.3z"/>
 </g>
</svg>
