<?xml version="1.0" encoding="UTF-8"?>
<!DOCTYPE svg PUBLIC "-//W3C//DTD SVG 1.1//EN" "http://www.w3.org/Graphics/SVG/1.1/DTD/svg11.dtd">
<!-- Creator: CorelDRAW 2018 (64-Bit) -->
<svg xmlns="http://www.w3.org/2000/svg" xml:space="preserve" width="22.085mm" height="8.8642mm" version="1.1" style="shape-rendering:geometricPrecision; text-rendering:geometricPrecision; image-rendering:optimizeQuality; fill-rule:evenodd; clip-rule:evenodd"
viewBox="0 0 282.92 113.56"
 xmlns:xlink="http://www.w3.org/1999/xlink">
 <defs>
  <style type="text/css">
   <![CDATA[
    .fil1 {fill:white}
    .fil2 {fill:white;fill-opacity:0.200000}
    .fil0 {fill:white;fill-opacity:0.349020}
   ]]>
  </style>
 </defs>
 <g id="Слой_x0020_1">
  <metadata id="CorelCorpID_0Corel-Layer"/>
  <path class="fil0" d="M239.09 40.07l6.68 0c3.69,0 6.68,-2.99 6.68,-6.68 0,-3.69 -2.99,-6.68 -6.68,-6.68l-15.91 0 -7.82 -15.64c-3.36,-6.78 -10.28,-11.07 -17.85,-11.07 -0.02,0 -0.05,0 -0.07,0l-125.3 0c-0.03,0 -0.05,0 -0.07,0 -7.57,0 -14.49,4.29 -17.86,11.07l-7.82 15.64 -15.91 0c-3.69,0 -6.68,2.99 -6.68,6.68 0,3.69 2.99,6.68 6.68,6.68l6.68 0 -9.35 12.46c-2.59,3.47 -4,7.69 -4.01,12.03l0 15.59c0.01,4.75 2.56,9.14 6.68,11.5l0 8.54c0,7.38 5.99,13.36 13.36,13.36l3.78 0c7.38,0 13.36,-5.98 13.36,-13.36l0 -1.89 147.62 0 0 1.89c0,7.38 5.99,13.36 13.36,13.36l3.77 0c7.38,0 13.36,-5.98 13.36,-13.36l0 -8.54c4.12,-2.36 6.67,-6.75 6.68,-11.5l0 -15.59c-0.01,-4.33 -1.41,-8.55 -4.01,-12.03l-9.35 -12.47zm-36.7 19.53c2.54,0 11.09,-1.07 10.14,3.54l-1.18 5.72c-0.39,1.9 -1.63,3.2 -3.54,3.54l-20.14 3.54c-1.91,0.33 -3.54,-1.59 -3.54,-3.54 0,-8.96 11.88,-12.79 18.25,-12.79zm-121.35 0c-2.55,0 -11.09,-1.07 -10.14,3.54l1.18 5.72c0.39,1.9 1.63,3.2 3.54,3.54l20.14 3.54c1.91,0.33 3.53,-1.59 3.53,-3.54 0,-8.96 -11.87,-12.79 -18.25,-12.79zm32.08 1.43l57.19 0c1.87,0 4.1,1.27 3.41,2.59l-4.33 8.21c-0.69,1.32 -1.54,2.6 -3.41,2.6l-48.54 0c-1.86,0 -2.71,-1.27 -3.4,-2.6l-4.32 -8.21c-0.7,-1.32 1.53,-2.59 3.4,-2.59zm-21.91 -30.91l9.67 -19.33c1.13,-2.26 4.64,-3.69 7.17,-3.69l67.24 0c2.53,0 6.59,2.55 7.73,4.81l9.11 18.22c1.62,3.15 2.81,7.29 -2.31,7.29l-96.22 0c-0,0 -0,0 -0.01,0 -3.7,0 -4.51,-3.03 -2.38,-7.29z"/>
  <path class="fil1" d="M208.26 40.08l6.68 0c3.69,0 6.68,-2.99 6.68,-6.68 0,-3.69 -2.99,-6.68 -6.68,-6.68l-15.91 0 -7.82 -15.64c-3.36,-6.78 -10.28,-11.07 -17.85,-11.07 -0.02,0 -0.05,0 -0.07,0l-63.64 0c-0.02,0 -0.05,0 -0.07,0 -7.57,0 -14.49,4.29 -17.85,11.07l-7.82 15.64 -15.91 0c-3.69,0 -6.68,2.99 -6.68,6.68 0,3.69 2.99,6.68 6.68,6.68l6.68 0 -9.35 12.46c-2.59,3.47 -4,7.69 -4.01,12.03l0 15.59c0.01,4.75 2.56,9.14 6.68,11.5l0 8.54c0,7.38 5.98,13.36 13.36,13.36l3.77 0c7.38,0 13.36,-5.98 13.36,-13.36l0 -1.89 85.97 0 0 1.89c0,7.38 5.98,13.36 13.36,13.36l3.77 0c7.38,0 13.36,-5.98 13.36,-13.36l0 -8.54c4.12,-2.36 6.67,-6.75 6.68,-11.5l0 -15.59c-0.01,-4.33 -1.42,-8.55 -4.01,-12.02l-9.35 -12.47zm-6.2 19.53c2.55,0 11.09,-1.07 10.14,3.54l-1.18 5.72c-0.39,1.9 -1.63,3.2 -3.54,3.54l-20.14 3.54c-1.91,0.33 -3.54,-1.59 -3.54,-3.54 0,-8.95 11.88,-12.79 18.25,-12.79zm-121.34 0c-2.55,0 -11.09,-1.07 -10.14,3.54l1.18 5.72c0.39,1.9 1.63,3.2 3.54,3.54l20.14 3.54c1.91,0.33 3.54,-1.59 3.54,-3.54 0,-8.95 -11.88,-12.79 -18.25,-12.79zm32.08 1.43l57.19 0c1.87,0 4.1,1.27 3.41,2.6l-4.33 8.21c-0.69,1.32 -1.54,2.6 -3.41,2.6l-48.54 0c-1.87,0 -2.71,-1.27 -3.41,-2.6l-4.33 -8.21c-0.7,-1.32 1.53,-2.6 3.41,-2.6zm-21.91 -30.91l9.67 -19.33c1.13,-2.26 4.64,-3.69 7.17,-3.69l67.24 0c2.53,0 6.59,2.54 7.73,4.81l9.11 18.22c1.62,3.15 2.81,7.29 -2.31,7.29l-96.22 0c-0,0 -0,0 -0.01,0 -3.7,0 -4.51,-3.03 -2.38,-7.29z"/>
  <path class="fil2" d="M269.57 40.07l6.68 0c3.69,0 6.68,-2.99 6.68,-6.68 0,-3.69 -2.99,-6.68 -6.68,-6.68l-15.91 0 -7.82 -15.64c-3.36,-6.78 -10.28,-11.07 -17.85,-11.07 -0.02,0 -0.05,0 -0.07,0l-30.39 0c7.57,0 14.49,4.29 17.85,11.07l7.82 15.64 15.91 0c3.69,0 6.68,2.99 6.68,6.68 0,3.69 -2.99,6.68 -6.68,6.68l-6.68 0 9.35 12.47c2.59,3.47 4,7.69 4.01,12.03l0 15.59c-0.01,4.75 -2.56,9.14 -6.68,11.5l0 8.54c0,0.24 -0.01,0.48 -0.02,0.71 0.37,7.05 6.21,12.65 13.34,12.65l3.77 0c7.38,0 13.36,-5.98 13.36,-13.36l0 -8.54c4.12,-2.36 6.67,-6.75 6.68,-11.5l0 -15.59c-0.01,-4.33 -1.42,-8.55 -4.01,-12.03l-9.35 -12.47zm-190.81 -40.08l-30.42 0c-0.02,0 -0.05,0 -0.07,0 -7.57,0 -14.49,4.29 -17.85,11.07l-7.82 15.64 -15.91 0c-3.69,0 -6.68,2.99 -6.68,6.68 0,3.69 2.99,6.68 6.68,6.68l6.68 0 -9.35 12.46c-2.59,3.47 -4,7.69 -4.01,12.03l0 15.59c0.01,4.75 2.56,9.14 6.68,11.5l0 8.54c0,7.38 5.98,13.36 13.36,13.36l3.77 0c7.38,0 13.36,-5.98 13.36,-13.36l0 -1.89 0 -6.65c-4.12,-2.36 -6.67,-6.75 -6.68,-11.5l0 -15.59c0.01,-4.33 1.41,-8.55 4,-12.03l9.35 -12.46 -6.68 0c-3.69,0 -6.68,-2.99 -6.68,-6.68 0,-3.69 2.99,-6.68 6.68,-6.68l15.91 0 7.82 -15.64c3.36,-6.78 10.28,-11.07 17.85,-11.07z"/>
 </g>
</svg>
