<?xml version="1.0" encoding="UTF-8"?>
<!DOCTYPE svg PUBLIC "-//W3C//DTD SVG 1.1//EN" "http://www.w3.org/Graphics/SVG/1.1/DTD/svg11.dtd">
<!-- Creator: CorelDRAW 2018 (64-Bit) -->
<svg xmlns="http://www.w3.org/2000/svg" xml:space="preserve" width="4.9487mm" height="4.9378mm" version="1.1" style="shape-rendering:geometricPrecision; text-rendering:geometricPrecision; image-rendering:optimizeQuality; fill-rule:evenodd; clip-rule:evenodd"
viewBox="0 0 22.9 22.85"
 xmlns:xlink="http://www.w3.org/1999/xlink">
 <defs>
  <style type="text/css">
   <![CDATA[
    .fil0 {fill:#3185F5}
   ]]>
  </style>
 </defs>
 <g id="Слой_x0020_1">
  <metadata id="CorelCorpID_0Corel-Layer"/>
  <g id="_2230439420352">
   <g id="_2656676847792">
    <g>
     <g>
      <g>
       <path class="fil0" d="M22.41 18.06l-3.53 -3.53c-0.71,-0.71 -1.87,-0.68 -2.6,0.05l-1.79 1.79c-0.1,-0.05 -0.23,-0.13 -0.35,-0.2 -1.14,-0.63 -2.68,-1.49 -4.29,-3.1 -1.62,-1.62 -2.47,-3.15 -3.1,-4.29 -0.08,-0.13 -0.13,-0.23 -0.2,-0.35l1.19 -1.19 0.58 -0.58c0.73,-0.73 0.76,-1.89 0.05,-2.6l-3.53 -3.53c-0.71,-0.71 -1.87,-0.68 -2.6,0.05l-0.98 1.01 0.03 0.03c-0.33,0.43 -0.61,0.91 -0.83,1.44 -0.2,0.5 -0.3,0.98 -0.35,1.46 -0.45,3.86 1.31,7.4 6.11,12.22 6.64,6.64 11.99,6.13 12.22,6.11 0.5,-0.05 0.98,-0.18 1.46,-0.38 0.53,-0.2 1.01,-0.48 1.44,-0.81l0.03 0.03 1.01 -0.98c0.73,-0.73 0.76,-1.89 0.05,-2.6l0.02 -0.02z"/>
      </g>
     </g>
    </g>
    <g>
    </g>
    <g>
    </g>
    <g>
    </g>
    <g>
    </g>
    <g>
    </g>
    <g>
    </g>
    <g>
    </g>
    <g>
    </g>
    <g>
    </g>
    <g>
    </g>
    <g>
    </g>
    <g>
    </g>
    <g>
    </g>
    <g>
    </g>
    <g>
    </g>
   </g>
  </g>
 </g>
</svg>
