<?xml version="1.0" encoding="UTF-8"?>
<!DOCTYPE svg PUBLIC "-//W3C//DTD SVG 1.1//EN" "http://www.w3.org/Graphics/SVG/1.1/DTD/svg11.dtd">
<!-- Creator: CorelDRAW 2018 (64-Bit) -->
<svg xmlns="http://www.w3.org/2000/svg" xml:space="preserve" width="9.9185mm" height="7.0257mm" version="1.1" style="shape-rendering:geometricPrecision; text-rendering:geometricPrecision; image-rendering:optimizeQuality; fill-rule:evenodd; clip-rule:evenodd"
viewBox="0 0 14.5 10.27"
 xmlns:xlink="http://www.w3.org/1999/xlink">
 <defs>
  <style type="text/css">
   <![CDATA[
    .fil0 {fill:#23A328}
   ]]>
  </style>
 </defs>
 <g id="Слой_x0020_1">
  <metadata id="CorelCorpID_0Corel-Layer"/>
  <path class="fil0" d="M13.29 3.63l0.6 0c0.33,0 0.6,-0.27 0.6,-0.6 0,-0.33 -0.27,-0.6 -0.6,-0.6l-1.44 0 -0.71 -1.42c-0.3,-0.61 -0.93,-1 -1.62,-1 -0,0 -0,0 -0.01,0l-5.76 0c-0,0 -0,0 -0.01,0 -0.68,0 -1.31,0.39 -1.61,1l-0.71 1.42 -1.44 0c-0.33,0 -0.6,0.27 -0.6,0.6 0,0.33 0.27,0.6 0.6,0.6l0.6 0 -0.85 1.13c-0.23,0.31 -0.36,0.7 -0.36,1.09l0 1.41c0,0.43 0.23,0.83 0.6,1.04l0 0.77c0,0.67 0.54,1.21 1.21,1.21l0.34 0c0.67,0 1.21,-0.54 1.21,-1.21l0 -0.17 7.78 0 0 0.17c0,0.67 0.54,1.21 1.21,1.21l0.34 0c0.67,0 1.21,-0.54 1.21,-1.21l0 -0.77c0.37,-0.21 0.6,-0.61 0.6,-1.04l0 -1.41c-0,-0.39 -0.13,-0.77 -0.36,-1.09l-0.85 -1.13zm-0.56 1.77c0.23,0 1,-0.1 0.92,0.32l-0.11 0.52c-0.04,0.17 -0.15,0.29 -0.32,0.32l-1.82 0.32c-0.17,0.03 -0.32,-0.14 -0.32,-0.32 0,-0.81 1.07,-1.16 1.65,-1.16zm-10.98 0c-0.23,0 -1,-0.1 -0.92,0.32l0.11 0.52c0.04,0.17 0.15,0.29 0.32,0.32l1.82 0.32c0.17,0.03 0.32,-0.14 0.32,-0.32 0,-0.81 -1.07,-1.16 -1.65,-1.16zm2.9 0.13l5.17 0c0.17,0 0.37,0.12 0.31,0.23l-0.39 0.74c-0.06,0.12 -0.14,0.23 -0.31,0.23l-4.39 0c-0.17,0 -0.25,-0.12 -0.31,-0.23l-0.39 -0.74c-0.06,-0.12 0.14,-0.23 0.31,-0.23zm-1.98 -2.8l0.87 -1.75c0.1,-0.2 0.42,-0.33 0.65,-0.33l6.08 0c0.23,0 0.6,0.23 0.7,0.43l0.82 1.65c0.15,0.28 0.25,0.66 -0.21,0.66l-8.7 0c0,0 -0,0 -0,0 -0.33,0 -0.41,-0.27 -0.21,-0.66z"/>
 </g>
</svg>
