<?xml version="1.0" encoding="UTF-8"?>
<!DOCTYPE svg PUBLIC "-//W3C//DTD SVG 1.1//EN" "http://www.w3.org/Graphics/SVG/1.1/DTD/svg11.dtd">
<!-- Creator: CorelDRAW 2018 (64-Bit) -->
<svg xmlns="http://www.w3.org/2000/svg" xml:space="preserve" width="10.5447mm" height="13.6096mm" version="1.1" style="shape-rendering:geometricPrecision; text-rendering:geometricPrecision; image-rendering:optimizeQuality; fill-rule:evenodd; clip-rule:evenodd"
viewBox="0 0 15.66 20.21"
 xmlns:xlink="http://www.w3.org/1999/xlink">
 <defs>
  <style type="text/css">
   <![CDATA[
    .fil0 {fill:#1FA1F7}
   ]]>
  </style>
 </defs>
 <g id="Слой_x0020_1">
  <metadata id="CorelCorpID_0Corel-Layer"/>
  <path class="fil0" d="M14.35 13.03l0.65 0c0.36,0 0.65,-0.29 0.65,-0.65 0,-0.36 -0.29,-0.65 -0.65,-0.65l-1.55 0 -0.76 -1.53c-0.33,-0.66 -1,-1.08 -1.74,-1.08 -0,0 -0,0 -0.01,0l-6.22 0c-0,0 -0,0 -0.01,0 -0.74,0 -1.42,0.42 -1.74,1.08l-0.76 1.53 -1.55 0c-0.36,0 -0.65,0.29 -0.65,0.65 0,0.36 0.29,0.65 0.65,0.65l0.65 0 -0.91 1.22c-0.25,0.34 -0.39,0.75 -0.39,1.17l0 1.52c0,0.46 0.25,0.89 0.65,1.12l0 0.83c0,0.72 0.58,1.3 1.3,1.3l0.37 0c0.72,0 1.3,-0.58 1.3,-1.3l0 -0.18 8.4 0 0 0.18c0,0.72 0.58,1.3 1.3,1.3l0.37 0c0.72,0 1.3,-0.58 1.3,-1.3l0 -0.83c0.4,-0.23 0.65,-0.66 0.65,-1.12l0 -1.52c-0,-0.42 -0.14,-0.84 -0.39,-1.17l-0.91 -1.22zm-6.31 -7.4l0.04 -0c1.04,-0.08 1.86,-0.95 1.86,-2.01 0,-0.9 -1.13,-2.73 -1.69,-3.46 -0.08,-0.1 -0.19,-0.16 -0.32,-0.16 -0.12,0 -0.24,0.06 -0.32,0.16 -0.56,0.74 -1.69,2.56 -1.69,3.46 0,1.11 0.9,2.01 2.01,2.01 0.04,0 0.07,-0 0.11,-0zm6.76 -0.75c0,-0.73 -0.91,-2.21 -1.37,-2.81 -0.06,-0.08 -0.16,-0.13 -0.26,-0.13 -0.1,0 -0.2,0.05 -0.26,0.13 -0.46,0.6 -1.37,2.08 -1.37,2.81 0,0.9 0.73,1.63 1.63,1.63 0.9,0 1.63,-0.73 1.63,-1.63zm-10.44 0c0,-0.73 -0.91,-2.21 -1.37,-2.81 -0.06,-0.08 -0.16,-0.13 -0.26,-0.13 -0.1,0 -0.2,0.05 -0.26,0.13 -0.46,0.6 -1.37,2.08 -1.37,2.81 0,0.9 0.73,1.63 1.63,1.63 0.9,0 1.63,-0.73 1.63,-1.63l-0 0zm9.37 10.06c0.25,0 1.08,-0.1 0.99,0.35l-0.12 0.56c-0.04,0.19 -0.16,0.31 -0.35,0.35l-1.97 0.35c-0.19,0.03 -0.35,-0.16 -0.35,-0.35 0,-0.87 1.16,-1.25 1.78,-1.25zm-11.85 0c-0.25,0 -1.08,-0.1 -0.99,0.35l0.12 0.56c0.04,0.19 0.16,0.31 0.35,0.35l1.97 0.35c0.19,0.03 0.35,-0.16 0.35,-0.35 0,-0.87 -1.16,-1.25 -1.78,-1.25zm3.13 0.14l5.59 0c0.18,0 0.4,0.12 0.33,0.25l-0.42 0.8c-0.07,0.13 -0.15,0.25 -0.33,0.25l-4.74 0c-0.18,0 -0.26,-0.12 -0.33,-0.25l-0.42 -0.8c-0.07,-0.13 0.15,-0.25 0.33,-0.25zm-2.14 -3.02l0.94 -1.89c0.11,-0.22 0.45,-0.36 0.7,-0.36l6.57 0c0.25,0 0.64,0.25 0.75,0.47l0.89 1.78c0.16,0.31 0.27,0.71 -0.23,0.71l-9.4 0c0,0 -0,0 -0,0 -0.36,0 -0.44,-0.3 -0.23,-0.71z"/>
 </g>
</svg>
