<?xml version="1.0" encoding="UTF-8"?>
<!DOCTYPE svg PUBLIC "-//W3C//DTD SVG 1.1//EN" "http://www.w3.org/Graphics/SVG/1.1/DTD/svg11.dtd">
<!-- Creator: CorelDRAW 2018 (64-Bit) -->
<svg xmlns="http://www.w3.org/2000/svg" xml:space="preserve" width="9.9185mm" height="12.8014mm" version="1.1" style="shape-rendering:geometricPrecision; text-rendering:geometricPrecision; image-rendering:optimizeQuality; fill-rule:evenodd; clip-rule:evenodd"
viewBox="0 0 13.79 17.8"
 xmlns:xlink="http://www.w3.org/1999/xlink">
 <defs>
  <style type="text/css">
   <![CDATA[
    .fil0 {fill:#1FA1F7}
   ]]>
  </style>
 </defs>
 <g id="Слой_x0020_1">
  <metadata id="CorelCorpID_0Corel-Layer"/>
  <path class="fil0" d="M12.64 11.48l0.57 0c0.32,0 0.57,-0.26 0.57,-0.57 0,-0.32 -0.26,-0.57 -0.57,-0.57l-1.37 0 -0.67 -1.35c-0.29,-0.58 -0.88,-0.95 -1.54,-0.95 -0,0 -0,0 -0.01,0l-5.47 0c-0,0 -0,0 -0.01,0 -0.65,0 -1.25,0.37 -1.54,0.95l-0.67 1.35 -1.37 0c-0.32,0 -0.57,0.26 -0.57,0.57 0,0.32 0.26,0.57 0.57,0.57l0.57 0 -0.8 1.07c-0.22,0.3 -0.34,0.66 -0.34,1.03l0 1.34c0,0.41 0.22,0.79 0.57,0.99l0 0.73c0,0.63 0.51,1.15 1.15,1.15l0.32 0c0.63,0 1.15,-0.51 1.15,-1.15l0 -0.16 7.39 0 0 0.16c0,0.63 0.51,1.15 1.15,1.15l0.32 0c0.63,0 1.15,-0.51 1.15,-1.15l0 -0.73c0.35,-0.2 0.57,-0.58 0.57,-0.99l0 -1.34c-0,-0.37 -0.12,-0.74 -0.34,-1.03l-0.8 -1.07zm-5.55 -6.52l0.04 -0c0.92,-0.07 1.64,-0.83 1.64,-1.77 0,-0.8 -0.99,-2.4 -1.49,-3.05 -0.07,-0.09 -0.17,-0.14 -0.28,-0.14 -0.11,0 -0.21,0.05 -0.28,0.14 -0.5,0.65 -1.49,2.25 -1.49,3.05 0,0.98 0.79,1.77 1.77,1.77 0.03,0 0.07,-0 0.1,-0zm5.96 -0.66c0,-0.65 -0.8,-1.95 -1.21,-2.47 -0.05,-0.07 -0.14,-0.11 -0.23,-0.11 -0.09,0 -0.17,0.04 -0.23,0.11 -0.4,0.53 -1.21,1.83 -1.21,2.47 0,0.79 0.64,1.44 1.44,1.44 0.79,0 1.44,-0.64 1.44,-1.44zm-9.19 0c0,-0.65 -0.8,-1.95 -1.21,-2.47 -0.05,-0.07 -0.14,-0.11 -0.23,-0.11 -0.09,0 -0.17,0.04 -0.23,0.11 -0.41,0.53 -1.21,1.83 -1.21,2.47 0,0.79 0.64,1.44 1.44,1.44 0.79,0 1.44,-0.64 1.44,-1.44l-0 0zm8.25 8.86c0.22,0 0.95,-0.09 0.87,0.3l-0.1 0.49c-0.03,0.16 -0.14,0.28 -0.3,0.3l-1.73 0.3c-0.16,0.03 -0.3,-0.14 -0.3,-0.3 0,-0.77 1.02,-1.1 1.57,-1.1zm-10.44 0c-0.22,0 -0.95,-0.09 -0.87,0.3l0.1 0.49c0.03,0.16 0.14,0.28 0.3,0.3l1.73 0.3c0.16,0.03 0.3,-0.14 0.3,-0.3 0,-0.77 -1.02,-1.1 -1.57,-1.1zm2.76 0.12l4.92 0c0.16,0 0.35,0.11 0.29,0.22l-0.37 0.71c-0.06,0.11 -0.13,0.22 -0.29,0.22l-4.18 0c-0.16,0 -0.23,-0.11 -0.29,-0.22l-0.37 -0.71c-0.06,-0.11 0.13,-0.22 0.29,-0.22zm-1.89 -2.66l0.83 -1.66c0.1,-0.19 0.4,-0.32 0.62,-0.32l5.78 0c0.22,0 0.57,0.22 0.66,0.41l0.78 1.57c0.14,0.27 0.24,0.63 -0.2,0.63l-8.28 0c0,0 -0,0 -0,0 -0.32,0 -0.39,-0.26 -0.2,-0.63z"/>
 </g>
</svg>
