<?xml version="1.0" encoding="UTF-8"?>
<!DOCTYPE svg PUBLIC "-//W3C//DTD SVG 1.1//EN" "http://www.w3.org/Graphics/SVG/1.1/DTD/svg11.dtd">
<!-- Creator: CorelDRAW 2018 (64-Bit) -->
<svg xmlns="http://www.w3.org/2000/svg" xml:space="preserve" width="6.15mm" height="5.4325mm" version="1.1" style="shape-rendering:geometricPrecision; text-rendering:geometricPrecision; image-rendering:optimizeQuality; fill-rule:evenodd; clip-rule:evenodd"
viewBox="0 0 1.97 1.74"
 xmlns:xlink="http://www.w3.org/1999/xlink">
 <defs>
  <style type="text/css">
   <![CDATA[
    .fil0 {fill:#23A328}
   ]]>
  </style>
 </defs>
 <g id="Слой_x0020_1">
  <metadata id="CorelCorpID_0Corel-Layer"/>
  <path class="fil0" d="M1.89 0.01c-0.09,-0.05 -0.19,0.04 -0.25,0.1 -0.13,0.13 -0.25,0.28 -0.37,0.42 -0.14,0.15 -0.27,0.3 -0.41,0.45 -0.08,0.08 -0.17,0.17 -0.23,0.27 -0.12,-0.12 -0.23,-0.25 -0.37,-0.36 -0.1,-0.08 -0.26,-0.13 -0.26,0.05 0.01,0.24 0.22,0.49 0.37,0.65 0.07,0.07 0.15,0.14 0.25,0.14 0.12,0.01 0.24,-0.14 0.32,-0.22 0.13,-0.14 0.23,-0.29 0.35,-0.43 0.15,-0.19 0.3,-0.37 0.45,-0.56 0.09,-0.12 0.38,-0.4 0.15,-0.53l0 0 -0 0z"/>
 </g>
</svg>
