<?xml version="1.0" encoding="UTF-8"?>
<!DOCTYPE svg PUBLIC "-//W3C//DTD SVG 1.1//EN" "http://www.w3.org/Graphics/SVG/1.1/DTD/svg11.dtd">
<!-- Creator: CorelDRAW 2018 (64-Bit) -->
<svg xmlns="http://www.w3.org/2000/svg" xml:space="preserve" width="4.3101mm" height="4.3101mm" version="1.1" style="shape-rendering:geometricPrecision; text-rendering:geometricPrecision; image-rendering:optimizeQuality; fill-rule:evenodd; clip-rule:evenodd"
viewBox="0 0 3.32 3.32"
 xmlns:xlink="http://www.w3.org/1999/xlink">
 <defs>
  <style type="text/css">
   <![CDATA[
    .fil0 {fill:#3185F5;fill-rule:nonzero}
   ]]>
  </style>
 </defs>
 <g id="Слой_x0020_1">
  <metadata id="CorelCorpID_0Corel-Layer"/>
  <path class="fil0" d="M1.66 0c0.46,0 0.87,0.19 1.17,0.49 0.3,0.3 0.49,0.71 0.49,1.17 0,0.46 -0.19,0.87 -0.49,1.17 -0.3,0.3 -0.71,0.49 -1.17,0.49 -0.46,0 -0.87,-0.19 -1.17,-0.49 -0.3,-0.3 -0.49,-0.72 -0.49,-1.17 0,-0.46 0.19,-0.87 0.49,-1.17 0.3,-0.3 0.72,-0.49 1.17,-0.49zm0.9 0.76c-0.23,-0.23 -0.55,-0.37 -0.9,-0.37 -0.35,0 -0.67,0.14 -0.9,0.37 -0.23,0.23 -0.37,0.55 -0.37,0.9 0,0.35 0.14,0.67 0.37,0.9 0.23,0.23 0.55,0.37 0.9,0.37 0.35,0 0.67,-0.14 0.9,-0.37 0.23,-0.23 0.37,-0.55 0.37,-0.9 0,-0.35 -0.14,-0.67 -0.37,-0.9z"/>
 </g>
</svg>
