<?xml version="1.0" encoding="UTF-8"?>
<!DOCTYPE svg PUBLIC "-//W3C//DTD SVG 1.1//EN" "http://www.w3.org/Graphics/SVG/1.1/DTD/svg11.dtd">
<!-- Creator: CorelDRAW 2018 (64-Bit) -->
<svg xmlns="http://www.w3.org/2000/svg" xml:space="preserve" width="4.0388mm" height="4.0388mm" version="1.1" style="shape-rendering:geometricPrecision; text-rendering:geometricPrecision; image-rendering:optimizeQuality; fill-rule:evenodd; clip-rule:evenodd"
viewBox="0 0 2.88 2.88"
 xmlns:xlink="http://www.w3.org/1999/xlink">
 <defs>
  <style type="text/css">
   <![CDATA[
    .fil0 {fill:#3185F5}
   ]]>
  </style>
 </defs>
 <g id="Слой_x0020_1">
  <metadata id="CorelCorpID_0Corel-Layer"/>
  <path class="fil0" d="M1.44 0c-0.79,0 -1.44,0.65 -1.44,1.44 0,0.79 0.65,1.44 1.44,1.44 0.79,0 1.44,-0.65 1.44,-1.44 0,-0.79 -0.65,-1.44 -1.44,-1.44zm0.63 2.04c-0.04,0.04 -0.1,0.06 -0.16,0.06 -0.06,0 -0.11,-0.02 -0.16,-0.06l-0.47 -0.45c-0.04,-0.04 -0.06,-0.1 -0.06,-0.16l0 -0.72c0,-0.12 0.1,-0.22 0.22,-0.22 0.12,0 0.22,0.1 0.22,0.22l0 0.63 0.4 0.38c0.09,0.09 0.09,0.23 0,0.31l0 0z"/>
 </g>
</svg>
