<?xml version="1.0" encoding="UTF-8"?>
<!DOCTYPE svg PUBLIC "-//W3C//DTD SVG 1.1//EN" "http://www.w3.org/Graphics/SVG/1.1/DTD/svg11.dtd">
<!-- Creator: CorelDRAW 2018 (64-Bit) -->
<svg xmlns="http://www.w3.org/2000/svg" xml:space="preserve" width="4.6761mm" height="4.6759mm" version="1.1" style="shape-rendering:geometricPrecision; text-rendering:geometricPrecision; image-rendering:optimizeQuality; fill-rule:evenodd; clip-rule:evenodd"
viewBox="0 0 3 3"
 xmlns:xlink="http://www.w3.org/1999/xlink">
 <defs>
  <style type="text/css">
   <![CDATA[
    .fil0 {fill:white}
   ]]>
  </style>
 </defs>
 <g id="Слой_x0020_1">
  <metadata id="CorelCorpID_0Corel-Layer"/>
  <g id="_2230566422752">
   <g>
    <path class="fil0" d="M1.76 1.5l1.18 -1.18c0.07,-0.07 0.07,-0.19 0,-0.27 -0.07,-0.07 -0.19,-0.07 -0.27,0l-1.18 1.18 -1.18 -1.18c-0.07,-0.07 -0.19,-0.07 -0.27,0 -0.07,0.07 -0.07,0.19 0,0.27l1.18 1.18 -1.18 1.18c-0.07,0.07 -0.07,0.19 0,0.27 0.04,0.04 0.08,0.05 0.13,0.05 0.05,0 0.1,-0.02 0.13,-0.05l1.18 -1.18 1.18 1.18c0.04,0.04 0.08,0.05 0.13,0.05 0.05,0 0.1,-0.02 0.13,-0.05 0.07,-0.07 0.07,-0.19 0,-0.27l-1.18 -1.18z"/>
   </g>
   <g>
   </g>
   <g>
   </g>
   <g>
   </g>
   <g>
   </g>
   <g>
   </g>
   <g>
   </g>
   <g>
   </g>
   <g>
   </g>
   <g>
   </g>
   <g>
   </g>
   <g>
   </g>
   <g>
   </g>
   <g>
   </g>
   <g>
   </g>
   <g>
   </g>
  </g>
 </g>
</svg>
