<?xml version="1.0" encoding="UTF-8"?>
<!DOCTYPE svg PUBLIC "-//W3C//DTD SVG 1.1//EN" "http://www.w3.org/Graphics/SVG/1.1/DTD/svg11.dtd">
<!-- Creator: CorelDRAW 2018 (64-Bit) -->
<svg xmlns="http://www.w3.org/2000/svg" xml:space="preserve" width="6.2641mm" height="3.6999mm" version="1.1" style="shape-rendering:geometricPrecision; text-rendering:geometricPrecision; image-rendering:optimizeQuality; fill-rule:evenodd; clip-rule:evenodd"
viewBox="0 0 5.29 3.13"
 xmlns:xlink="http://www.w3.org/1999/xlink">
 <defs>
  <style type="text/css">
   <![CDATA[
    .fil0 {fill:white}
   ]]>
  </style>
 </defs>
 <g id="Слой_x0020_1">
  <metadata id="CorelCorpID_0Corel-Layer"/>
  <g id="_2230434167552">
   <g>
    <g>
     <path class="fil0" d="M5.21 0.26l-0.17 -0.17c-0.05,-0.05 -0.13,-0.08 -0.2,-0.08 -0.08,0 -0.15,0.03 -0.2,0.08l-1.98 1.98 -1.98 -1.98c-0.05,-0.05 -0.13,-0.08 -0.2,-0.08 -0.08,0 -0.15,0.03 -0.2,0.08l-0.17 0.17c-0.11,0.11 -0.11,0.3 0,0.41l2.36 2.37c0.05,0.05 0.13,0.09 0.21,0.09l0 0c0.08,0 0.15,-0.04 0.2,-0.09l2.36 -2.36c0.05,-0.05 0.08,-0.13 0.08,-0.21 0,-0.08 -0.03,-0.15 -0.08,-0.21z"/>
    </g>
   </g>
   <g>
   </g>
   <g>
   </g>
   <g>
   </g>
   <g>
   </g>
   <g>
   </g>
   <g>
   </g>
   <g>
   </g>
   <g>
   </g>
   <g>
   </g>
   <g>
   </g>
   <g>
   </g>
   <g>
   </g>
   <g>
   </g>
   <g>
   </g>
   <g>
   </g>
  </g>
 </g>
</svg>
