<?xml version="1.0" encoding="UTF-8"?>
<!DOCTYPE svg PUBLIC "-//W3C//DTD SVG 1.1//EN" "http://www.w3.org/Graphics/SVG/1.1/DTD/svg11.dtd">
<!-- Creator: CorelDRAW 2018 (64-Bit) -->
<svg xmlns="http://www.w3.org/2000/svg" xml:space="preserve" width="18.5932mm" height="18.9868mm" version="1.1" style="shape-rendering:geometricPrecision; text-rendering:geometricPrecision; image-rendering:optimizeQuality; fill-rule:evenodd; clip-rule:evenodd"
viewBox="0 0 71.4 72.91"
 xmlns:xlink="http://www.w3.org/1999/xlink"
 xmlns:svgjs="http://svgjs.com/svgjs">
 <defs>
  <style type="text/css">
   <![CDATA[
    .fil0 {fill:#357EF3}
   ]]>
  </style>
 </defs>
 <g id="Слой_x0020_1">
  <metadata id="CorelCorpID_0Corel-Layer"/>
  <g id="_2230435873424">
   <g>
    <g id="_3982C_rating2C_select2C_review2C_seo2C_star">
     <g id="XMLID_15_">
      <g id="XMLID_16_">
       <circle id="XMLID_44_" class="fil0" cx="66.08" cy="34.17" r="2.28" data-original="#000000"/>
       <circle id="XMLID_43_" class="fil0" cx="2.28" cy="43.29" r="2.28" data-original="#000000"/>
       <circle id="XMLID_42_" class="fil0" cx="48.61" cy="25.82" r="1.52" data-original="#000000"/>
       <circle id="XMLID_41_" class="fil0" cx="69.88" cy="56.2" r="1.52" data-original="#000000"/>
       <circle id="XMLID_40_" class="fil0" cx="7.6" cy="65.32" r="1.52" data-original="#000000"/>
       <circle id="XMLID_39_" class="fil0" cx="3.04" cy="24.3" r="1.52" data-original="#000000"/>
       <g id="XMLID_35_">
        <path id="XMLID_36_" class="fil0" d="M53.69 72.91l-31.42 0c-5.59,0 -10.12,-4.54 -10.12,-10.12l0 -32.42c0,-4.19 3.4,-7.6 7.6,-7.6 4.19,0 7.6,3.4 7.6,7.6l0 4.56c1.28,-0.96 2.86,-1.52 4.56,-1.52 3.71,0 6.81,2.67 7.46,6.18 1.29,-1.02 2.92,-1.63 4.69,-1.63 3.71,0 6.81,2.67 7.46,6.18 1.29,-1.02 2.92,-1.63 4.69,-1.63 4.19,0 7.6,3.4 7.6,7.6l0 12.67c0,5.58 -4.54,10.12 -10.12,10.12zm-33.94 -47.09c-2.51,0 -4.56,2.05 -4.56,4.56l0 32.42c0,3.9 3.17,7.08 7.08,7.08l31.4 0c3.9,0 7.08,-3.17 7.08,-7.08l0 -12.67c0,-2.51 -2.05,-4.56 -4.56,-4.56 -2.51,0 -4.56,2.05 -4.56,4.56 0,0.84 -0.68,1.52 -1.52,1.52 -0.84,0 -1.52,-0.68 -1.52,-1.52l0 -4.56c0,-2.51 -2.05,-4.56 -4.56,-4.56 -2.51,0 -4.56,2.05 -4.56,4.56 0,0.84 -0.68,1.52 -1.52,1.52 -0.84,0 -1.52,-0.68 -1.52,-1.52l0 -4.56c0,-2.51 -2.05,-4.56 -4.56,-4.56 -2.51,0 -4.56,2.05 -4.56,4.56 0,0.84 -0.68,1.52 -1.52,1.52 -0.84,0 -1.52,-0.68 -1.52,-1.52l0 -10.63c0.02,-2.51 -2.04,-4.56 -4.54,-4.56l0 0z" data-original="#000000"/>
       </g>
       <g id="XMLID_33_">
        <path id="XMLID_34_" class="fil0" d="M50.13 56.2c-0.84,0 -1.52,-0.68 -1.52,-1.52l0 -4.56c0,-0.84 0.68,-1.52 1.52,-1.52 0.84,0 1.52,0.68 1.52,1.52l0 4.56c0,0.84 -0.68,1.52 -1.52,1.52z" data-original="#000000"/>
       </g>
       <g id="XMLID_31_">
        <path id="XMLID_32_" class="fil0" d="M37.98 57.72c-0.84,0 -1.52,-0.68 -1.52,-1.52l0 -10.63c0,-0.84 0.68,-1.52 1.52,-1.52 0.84,0 1.52,0.68 1.52,1.52l0 10.63c0,0.84 -0.68,1.52 -1.52,1.52z" data-original="#000000"/>
       </g>
       <g id="XMLID_29_">
        <path id="XMLID_30_" class="fil0" d="M25.83 59.24c-0.84,0 -1.52,-0.68 -1.52,-1.52l0 -16.71c0,-0.84 0.68,-1.52 1.52,-1.52 0.84,0 1.52,0.68 1.52,1.52l0 16.71c0,0.84 -0.68,1.52 -1.52,1.52z" data-original="#000000"/>
       </g>
       <g id="XMLID_25_">
        <path id="XMLID_26_" class="fil0" d="M17.56 18.97l-4.53 -2.39 -4.53 2.39c-1.11,0.59 -2.42,-0.36 -2.2,-1.6l0.87 -5.04 -3.68 -3.57c-0.9,-0.88 -0.4,-2.42 0.84,-2.6l5.06 -0.73 2.26 -4.59c0.56,-1.12 2.17,-1.12 2.72,0l2.26 4.59 5.06 0.73c1.25,0.18 1.75,1.72 0.84,2.6l-3.66 3.57 0.87 5.04c0.24,1.25 -1.06,2.19 -2.17,1.6l0 0zm-9.74 -10.24c1.49,1.66 2.69,2.07 2.48,3.33l-0.49 2.8 2.51 -1.32c0.44,-0.23 0.97,-0.23 1.41,0l2.51 1.32 -0.49 -2.8c-0.21,-1.26 0.97,-1.67 2.48,-3.33l-2.81 -0.41c-1.26,-0.18 -1.28,-1.44 -2.4,-3.37 -1.11,1.93 -1.14,3.19 -2.4,3.37l-2.8 0.41z" data-original="#000000"/>
       </g>
       <g id="XMLID_21_">
        <path id="XMLID_22_" class="fil0" d="M40.77 18.97l-4.53 -2.39 -4.53 2.39c-1.11,0.59 -2.42,-0.36 -2.2,-1.6l0.87 -5.04 -3.66 -3.57c-0.9,-0.88 -0.4,-2.42 0.84,-2.6l5.06 -0.73 2.26 -4.59c0.56,-1.12 2.17,-1.12 2.72,0l2.26 4.59 5.06 0.73c1.25,0.18 1.75,1.72 0.84,2.6l-3.66 3.57 0.87 5.04c0.23,1.25 -1.08,2.19 -2.19,1.6l0 0zm-9.74 -10.24c1.49,1.66 2.69,2.07 2.48,3.33l-0.49 2.8 2.51 -1.32c0.44,-0.23 0.97,-0.23 1.41,0l2.51 1.32 -0.49 -2.8c-0.21,-1.26 0.97,-1.67 2.48,-3.33l-2.81 -0.41c-1.26,-0.18 -1.29,-1.44 -2.4,-3.37 -1.11,1.93 -1.14,3.19 -2.4,3.37l-2.8 0.41z" data-original="#000000"/>
       </g>
       <g id="XMLID_17_">
        <path id="XMLID_18_" class="fil0" d="M63.97 18.97l-4.53 -2.39 -4.53 2.39c-1.11,0.59 -2.42,-0.36 -2.2,-1.6l0.87 -5.04 -3.66 -3.57c-0.9,-0.88 -0.4,-2.42 0.84,-2.6l5.06 -0.73 2.26 -4.59c0.56,-1.12 2.17,-1.12 2.72,0l2.26 4.59 5.06 0.73c1.25,0.18 1.75,1.72 0.84,2.6l-3.66 3.57 0.87 5.04c0.23,1.25 -1.08,2.19 -2.19,1.6l0 0zm-9.74 -10.24c1.49,1.66 2.69,2.07 2.48,3.33l-0.49 2.8 2.51 -1.32c0.44,-0.23 0.97,-0.23 1.41,0l2.51 1.32 -0.49 -2.8c-0.21,-1.26 0.97,-1.67 2.48,-3.33l-2.81 -0.41c-1.26,-0.18 -1.29,-1.44 -2.4,-3.37 -1.11,1.93 -1.14,3.19 -2.4,3.37l-2.8 0.41z" data-original="#000000"/>
       </g>
      </g>
     </g>
    </g>
   </g>
  </g>
 </g>
</svg>
