<?xml version="1.0" encoding="UTF-8"?>
<!DOCTYPE svg PUBLIC "-//W3C//DTD SVG 1.1//EN" "http://www.w3.org/Graphics/SVG/1.1/DTD/svg11.dtd">
<!-- Creator: CorelDRAW 2018 (64-Bit) -->
<svg xmlns="http://www.w3.org/2000/svg" xml:space="preserve" width="34.925mm" height="34.925mm" version="1.1" style="shape-rendering:geometricPrecision; text-rendering:geometricPrecision; image-rendering:optimizeQuality; fill-rule:evenodd; clip-rule:evenodd"
viewBox="0 0 9632.13 9632.13"
 xmlns:xlink="http://www.w3.org/1999/xlink">
 <defs>
  <style type="text/css">
   <![CDATA[
    .fil3 {fill:white}
    .fil4 {fill:white;fill-rule:nonzero}
    .fil5 {fill:white;fill-opacity:0.200000}
    .fil1 {fill:white;fill-opacity:0.349020}
    .fil0 {fill:url(#id0)}
    .fil2 {fill:url(#id1)}
   ]]>
  </style>
  <linearGradient id="id0" gradientUnits="userSpaceOnUse" x1="6874.19" y1="0" x2="2757.95" y2="9632.13">
   <stop offset="0" style="stop-opacity:1; stop-color:#3977F2"/>
   <stop offset="1" style="stop-opacity:1; stop-color:#00D7FF"/>
  </linearGradient>
  <linearGradient id="id1" gradientUnits="userSpaceOnUse" x1="5518.96" y1="3943.18" x2="3732.86" y2="6282.19">
   <stop offset="0" style="stop-opacity:1; stop-color:#229EF7"/>
   <stop offset="1" style="stop-opacity:1; stop-color:#13B8FB"/>
  </linearGradient>
 </defs>
 <g id="Слой_x0020_1">
  <metadata id="CorelCorpID_0Corel-Layer"/>
  <rect class="fil0" width="9632.13" height="9632.13"/>
  <path class="fil1" d="M7330.32 4788.74l171.3 0c94.63,0 171.27,-76.7 171.27,-171.3 0,-94.6 -76.7,-171.3 -171.27,-171.3l-408.12 0 -200.56 -401.17c-86.16,-173.97 -263.69,-283.99 -457.82,-283.99 -0.55,0 -1.32,0 -1.82,0l-3213.31 0c-0.63,0 -1.24,0 -1.82,0 -194.16,0 -371.63,110.01 -457.87,283.99l-200.56 401.17 -408.04 0c-94.63,0 -171.3,76.7 -171.3,171.3 0,94.6 76.67,171.3 171.3,171.3l171.3 0 -239.89 319.67c-66.47,89.03 -102.54,197.25 -102.71,308.39l0 399.82c0.28,121.82 65.67,234.29 171.3,294.96l0 218.93c0,189.25 153.42,342.65 342.59,342.65l96.78 0c189.2,0 342.65,-153.4 342.65,-342.65l0 -48.37 3785.84 0 0 48.37c0,189.25 153.48,342.65 342.68,342.65l96.75 0c189.2,0 342.65,-153.4 342.65,-342.65l0 -218.93c105.63,-60.67 170.97,-173.14 171.27,-294.96l0 -399.71c-0.14,-111.09 -36.29,-219.39 -102.76,-308.37l-239.8 -319.81z"/>
  <path class="fil2" d="M6548.25 4788.79l171.3 0c94.63,0 171.3,-76.67 171.3,-171.3 0,-94.57 -76.67,-171.3 -171.3,-171.3l-408.07 0 -200.59 -401.2c-86.19,-173.94 -263.69,-284.01 -457.85,-284.01 -0.55,0 -1.27,0 -1.82,0l-1632.15 0c-0.61,0 -1.24,0 -1.82,0 -194.13,0 -371.61,110.07 -457.82,284.01l-200.61 401.2 -408.04 0c-94.63,0 -171.3,76.73 -171.3,171.3 0,94.63 76.67,171.3 171.3,171.3l171.32 0 -239.89 319.67c-66.49,89.03 -102.57,197.25 -102.73,308.39l0 399.82c0.3,121.82 65.67,234.29 171.3,294.96l0 218.93c0,189.25 153.42,342.62 342.62,342.62l96.78 0c189.2,0 342.65,-153.37 342.65,-342.62l0 -48.37 2204.68 0 0 48.37c0,189.25 153.45,342.62 342.65,342.62l96.78 0c189.17,0 342.62,-153.37 342.62,-342.62l0 -218.93c105.63,-60.67 170.99,-173.14 171.3,-294.96l0 -399.71c-0.17,-111.09 -36.32,-219.39 -102.79,-308.37l-239.8 -319.81z"/>
  <path class="fil3" d="M6548.25 4788.79l171.3 0c94.63,0 171.3,-76.67 171.3,-171.3 0,-94.57 -76.67,-171.3 -171.3,-171.3l-408.07 0 -200.59 -401.2c-86.19,-173.94 -263.69,-284.01 -457.85,-284.01 -0.55,0 -1.27,0 -1.82,0l-1632.15 0c-0.61,0 -1.24,0 -1.82,0 -194.13,0 -371.61,110.07 -457.82,284.01l-200.61 401.2 -408.04 0c-94.63,0 -171.3,76.73 -171.3,171.3 0,94.63 76.67,171.3 171.3,171.3l171.32 0 -239.89 319.67c-66.49,89.03 -102.57,197.25 -102.73,308.39l0 399.82c0.3,121.82 65.67,234.29 171.3,294.96l0 218.93c0,189.25 153.42,342.62 342.62,342.62l96.78 0c189.2,0 342.65,-153.37 342.65,-342.62l0 -48.37 2204.68 0 0 48.37c0,189.25 153.45,342.62 342.65,342.62l96.78 0c189.17,0 342.62,-153.37 342.62,-342.62l0 -218.93c105.63,-60.67 170.99,-173.14 171.3,-294.96l0 -399.71c-0.17,-111.09 -36.32,-219.39 -102.79,-308.37l-239.8 -319.81zm-159.05 500.82c65.25,0 284.34,-27.47 259.99,90.71l-30.23 146.64c-10.01,48.71 -41.73,82.1 -90.71,90.71l-516.4 90.71c-48.98,8.55 -90.74,-40.82 -90.74,-90.71 0,-229.65 304.56,-328.06 468.08,-328.06zm-3111.88 0c-65.34,0 -284.4,-27.47 -260.1,90.71l30.28 146.64c10.07,48.71 41.7,82.1 90.74,90.71l516.43 90.71c48.95,8.55 90.65,-40.82 90.65,-90.71 0,-229.65 -304.53,-328.06 -468,-328.06zm822.61 36.68l1466.68 0c48.07,0 105.19,32.71 87.34,66.55l-110.98 210.51c-17.73,33.84 -39.52,66.63 -87.32,66.63l-1244.8 0c-47.82,0 -69.47,-32.63 -87.34,-66.63l-110.92 -210.51c-17.87,-33.98 39.25,-66.55 87.34,-66.55zm-561.99 -792.63l247.88 -495.74c28.99,-58 119.03,-94.74 183.9,-94.74l1724.38 0c64.81,0 169.09,65.28 198.13,123.28l233.6 467.22c41.48,80.73 71.95,186.88 -59.32,186.88l-2467.48 0c-0.03,0 -0.06,0 -0.14,0 -94.9,0 -115.53,-77.72 -60.95,-186.91z"/>
  <path class="fil3" d="M4892.16 2845.04l10.89 -0.69c272.84,-20.6 487.94,-248.57 487.94,-526.69 0,-237.38 -295.82,-716.05 -445.02,-909.6 -19.8,-25.95 -50.58,-41.2 -83.21,-41.2 -32.63,0 -63.41,15.25 -83.18,41.2 -147.91,193.55 -445.05,672.22 -445.05,909.6 0,291.68 236.55,528.23 528.23,528.23 9.87,0 19.66,-0.33 29.4,-0.85zm1776.2 -197.08c0,-192.42 -239.78,-580.38 -360.71,-737.31 -16.05,-20.99 -40.98,-33.34 -67.43,-33.34 -26.45,0 -51.38,12.36 -67.43,33.34 -119.89,156.93 -360.68,544.89 -360.68,737.31 -0.03,236.41 191.7,428.12 428.12,428.12 236.41,0 428.14,-191.7 428.14,-428.12zm-2740.24 0c0,-192.42 -239.75,-580.38 -360.68,-737.31 -16.02,-20.99 -40.98,-33.34 -67.43,-33.34 -26.45,0 -51.38,12.36 -67.43,33.34 -120.94,156.93 -360.71,544.89 -360.71,737.31 0,236.41 191.73,428.12 428.14,428.12 236.41,0 428.14,-191.7 428.14,-428.12l-0.03 0z"/>
  <path class="fil4" d="M3709.8 8280.55l0 -667.48 136.33 0 0 553.71 337.49 0 0 113.77 -473.82 0zm722.53 0l0 -673.13 136.33 0 0 673.13 -136.33 0zm594.83 0l-240.82 -673.13 147.27 0 170.97 498.28 164.04 -498.28 144.79 0 -239.42 673.13 -146.83 0zm611.6 0l0 -673.13 498.28 0 0 113.77 -361.95 0 0 149.48 336.58 0 0 113.74 -336.58 0 0 182.38 375.11 0 0 113.77 -511.43 0z"/>
  <path class="fil5" d="M8111.46 4788.74l171.3 0c94.63,0 171.27,-76.7 171.27,-171.3 0,-94.6 -76.7,-171.3 -171.27,-171.3l-408.12 0 -200.59 -401.17c-86.13,-173.97 -263.66,-283.99 -457.79,-283.99 -0.55,0 -1.35,0 -1.85,0l-779.29 0c194.13,0 371.66,110.01 457.82,283.99l200.56 401.17 408.12 0c94.57,0 171.27,76.7 171.27,171.3 0,94.6 -76.64,171.3 -171.27,171.3l-171.3 0 239.8 319.81c66.47,88.97 102.62,197.28 102.76,308.37l0 399.71c-0.3,121.82 -65.64,234.29 -171.27,294.96l0 218.93c0,6.12 -0.19,12.25 -0.5,18.29 9.51,180.76 159.13,324.36 342.23,324.36l96.75 0c189.2,0 342.65,-153.4 342.65,-342.65l0 -218.93c105.63,-60.67 170.97,-173.14 171.27,-294.96l0 -399.71c-0.14,-111.09 -36.29,-219.39 -102.76,-308.37l-239.8 -319.81zm-4893.29 -1027.75l-780.22 0c-0.61,0 -1.24,0 -1.79,0 -194.13,0 -371.63,110.01 -457.87,283.99l-200.59 401.17 -408.04 0c-94.63,0 -171.27,76.7 -171.27,171.3 0,94.6 76.64,171.3 171.27,171.3l171.32 0 -239.86 319.67c-66.52,89.03 -102.6,197.25 -102.73,308.39l0 399.82c0.28,121.82 65.64,234.29 171.27,294.96l0 218.93c0,189.25 153.42,342.65 342.62,342.65l96.78 0c189.2,0 342.65,-153.4 342.65,-342.65l0 -48.37 0 -170.55c-105.63,-60.67 -171.02,-173.14 -171.3,-294.96l0 -399.82c0.17,-111.15 36.24,-219.37 102.71,-308.39l239.89 -319.67 -171.3 0c-94.63,0 -171.3,-76.7 -171.3,-171.3 0,-94.6 76.67,-171.3 171.3,-171.3l408.04 0 200.56 -401.17c86.24,-173.97 263.71,-283.99 457.87,-283.99z"/>
 </g>
</svg>
