<?xml version="1.0" encoding="UTF-8"?>
<!DOCTYPE svg PUBLIC "-//W3C//DTD SVG 1.1//EN" "http://www.w3.org/Graphics/SVG/1.1/DTD/svg11.dtd">
<!-- Creator: CorelDRAW 2018 (64-Bit) -->
<svg xmlns="http://www.w3.org/2000/svg" xml:space="preserve" width="19.3843mm" height="18.989mm" version="1.1" style="shape-rendering:geometricPrecision; text-rendering:geometricPrecision; image-rendering:optimizeQuality; fill-rule:evenodd; clip-rule:evenodd"
viewBox="0 0 87.21 85.44"
 xmlns:xlink="http://www.w3.org/1999/xlink"
 xmlns:svgjs="http://svgjs.com/svgjs">
 <defs>
  <style type="text/css">
   <![CDATA[
    .fil0 {fill:#357EF3}
   ]]>
  </style>
 </defs>
 <g id="Слой_x0020_1">
  <metadata id="CorelCorpID_0Corel-Layer"/>
  <g id="_2230435870704">
   <g>
    <g id="_3662C_Location2C_map2C_pin2C_position2C_place_holder">
     <g id="XMLID_15_">
      <g id="XMLID_16_">
       <circle id="XMLID_42_" class="fil0" cx="81.63" cy="82.77" r="2.67" data-original="#000000"/>
       <circle id="XMLID_41_" class="fil0" cx="6.23" cy="2.67" r="2.67" data-original="#000000"/>
       <circle id="XMLID_40_" class="fil0" cx="53.4" cy="1.78" r="1.78" data-original="#000000"/>
       <circle id="XMLID_39_" class="fil0" cx="85.43" cy="16.02" r="1.78" data-original="#000000"/>
       <circle id="XMLID_38_" class="fil0" cx="30.26" cy="83.66" r="1.78" data-original="#000000"/>
       <circle id="XMLID_37_" class="fil0" cx="1.78" cy="62.3" r="1.78" data-original="#000000"/>
       <g id="XMLID_33_">
        <path id="XMLID_34_" class="fil0" d="M54.54 83.53l-23.14 -8.9c-0.69,-0.27 -1.14,-0.93 -1.14,-1.66l0 -71.2c0,-1.25 1.25,-2.12 2.42,-1.66l23.14 8.9c0.69,0.27 1.14,0.93 1.14,1.66l0 71.2c0,1.25 -1.26,2.1 -2.42,1.66zm-20.72 -11.78l19.58 7.53 0 -67.37 -19.58 -7.53 0 67.37z" data-original="#000000"/>
       </g>
       <g id="XMLID_29_">
        <path id="XMLID_30_" class="fil0" d="M53.4 81.88l0 -71.2c0,-0.73 0.44,-1.39 1.14,-1.66l23.14 -8.9c1.17,-0.44 2.42,0.41 2.42,1.66l0 71.2c0,0.73 -0.44,1.39 -1.14,1.66l-23.14 8.9c-1.16,0.44 -2.42,-0.41 -2.42,-1.66zm3.56 -69.97l0 67.39 19.58 -7.53 0 -67.39 -19.58 7.53z" data-original="#000000"/>
       </g>
       <g id="XMLID_27_">
        <path id="XMLID_28_" class="fil0" d="M21.36 58.74c-0.98,0 -1.78,-0.8 -1.78,-1.78 0,-12.76 10.38,-23.14 23.14,-23.14l1.78 0c10.8,0 19.58,-8.77 19.58,-19.58l0 -7.67c0,-0.98 0.8,-1.78 1.78,-1.78 0.98,0 1.78,0.8 1.78,1.78l0 7.67c0,12.76 -10.38,23.14 -23.14,23.14l-1.78 0c-10.8,0 -19.58,8.77 -19.58,19.58 0,0.98 -0.8,1.78 -1.78,1.78z" data-original="#000000"/>
       </g>
       <g id="XMLID_25_">
        <path id="XMLID_26_" class="fil0" d="M63.7 59.11c-0.69,-0.69 -0.69,-1.82 0,-2.51l6.23 -6.23c0.69,-0.69 1.82,-0.69 2.51,0 0.69,0.69 0.69,1.82 0,2.51l-6.23 6.23c-0.68,0.69 -1.82,0.69 -2.51,0z" data-original="#000000"/>
       </g>
       <g id="XMLID_23_">
        <path id="XMLID_24_" class="fil0" d="M69.93 59.11l-6.23 -6.23c-0.69,-0.69 -0.69,-1.82 0,-2.51 0.69,-0.69 1.82,-0.69 2.51,0l6.23 6.23c0.69,0.69 0.69,1.82 0,2.51 -0.68,0.69 -1.82,0.69 -2.51,0z" data-original="#000000"/>
       </g>
       <g id="XMLID_21_">
        <path id="XMLID_22_" class="fil0" d="M7.26 34.51c-0.37,-0.91 0.05,-1.96 0.96,-2.33 10.38,-4.33 15.4,-15.73 12.19,-26.06 -0.28,-0.94 0.23,-1.94 1.17,-2.22 0.94,-0.28 1.94,0.23 2.22,1.17 3.74,12.05 -2.1,25.35 -14.22,30.4 -0.91,0.37 -1.96,-0.05 -2.33,-0.96z" data-original="#000000"/>
       </g>
       <g id="XMLID_17_">
        <path id="XMLID_18_" class="fil0" d="M7.12 81.88l0 -71.2c0,-0.73 0.44,-1.39 1.14,-1.66l23.14 -8.9c1.17,-0.46 2.42,0.41 2.42,1.66l0 71.2c0,0.73 -0.44,1.39 -1.14,1.66l-23.14 8.9c-1.16,0.44 -2.42,-0.41 -2.42,-1.66zm3.56 -69.97l0 67.39 19.58 -7.53 0 -67.39 -19.58 7.53z" data-original="#000000"/>
       </g>
      </g>
     </g>
    </g>
   </g>
  </g>
 </g>
</svg>
