<?xml version="1.0" encoding="UTF-8"?>
<!DOCTYPE svg PUBLIC "-//W3C//DTD SVG 1.1//EN" "http://www.w3.org/Graphics/SVG/1.1/DTD/svg11.dtd">
<!-- Creator: CorelDRAW 2018 (64-Bit) -->
<svg xmlns="http://www.w3.org/2000/svg" xml:space="preserve" width="34.925mm" height="34.925mm" version="1.1" style="shape-rendering:geometricPrecision; text-rendering:geometricPrecision; image-rendering:optimizeQuality; fill-rule:evenodd; clip-rule:evenodd"
viewBox="0 0 232.01 232.01"
 xmlns:xlink="http://www.w3.org/1999/xlink">
 <defs>
  <style type="text/css">
   <![CDATA[
    .fil3 {fill:white}
    .fil4 {fill:white;fill-rule:nonzero}
    .fil6 {fill:white;fill-opacity:0.200000}
    .fil5 {fill:white;fill-rule:nonzero;fill-opacity:0.301961}
    .fil1 {fill:white;fill-opacity:0.349020}
    .fil0 {fill:url(#id0)}
    .fil2 {fill:url(#id1)}
   ]]>
  </style>
  <linearGradient id="id0" gradientUnits="userSpaceOnUse" x1="165.58" y1="0" x2="66.43" y2="232.01">
   <stop offset="0" style="stop-opacity:1; stop-color:#3977F2"/>
   <stop offset="1" style="stop-opacity:1; stop-color:#00D7FF"/>
  </linearGradient>
  <linearGradient id="id1" gradientUnits="userSpaceOnUse" x1="132.94" y1="94.98" x2="89.92" y2="151.32">
   <stop offset="0" style="stop-opacity:1; stop-color:#229EF7"/>
   <stop offset="1" style="stop-opacity:1; stop-color:#13B8FB"/>
  </linearGradient>
 </defs>
 <g id="Слой_x0020_1">
  <metadata id="CorelCorpID_0Corel-Layer"/>
  <rect class="fil0" width="232.01" height="232.01" rx="66.43" ry="66.43"/>
  <path class="fil1" d="M176.57 115.35l4.13 0c2.28,0 4.13,-1.85 4.13,-4.13 0,-2.28 -1.85,-4.13 -4.13,-4.13l-9.83 0 -4.83 -9.66c-2.08,-4.19 -6.35,-6.84 -11.03,-6.84 -0.01,0 -0.03,0 -0.04,0l-77.4 0c-0.02,0 -0.03,0 -0.04,0 -4.68,0 -8.95,2.65 -11.03,6.84l-4.83 9.66 -9.83 0c-2.28,0 -4.13,1.85 -4.13,4.13 0,2.28 1.85,4.13 4.13,4.13l4.13 0 -5.78 7.7c-1.6,2.14 -2.47,4.75 -2.47,7.43l0 9.63c0.01,2.93 1.58,5.64 4.13,7.1l0 5.27c0,4.56 3.7,8.25 8.25,8.25l2.33 0c4.56,0 8.25,-3.69 8.25,-8.25l0 -1.17 91.19 0 0 1.17c0,4.56 3.7,8.25 8.25,8.25l2.33 0c4.56,0 8.25,-3.69 8.25,-8.25l0 -5.27c2.54,-1.46 4.12,-4.17 4.13,-7.1l0 -9.63c-0,-2.68 -0.87,-5.28 -2.48,-7.43l-5.78 -7.7z"/>
  <path class="fil2" d="M157.73 115.35l4.13 0c2.28,0 4.13,-1.85 4.13,-4.13 0,-2.28 -1.85,-4.13 -4.13,-4.13l-9.83 0 -4.83 -9.66c-2.08,-4.19 -6.35,-6.84 -11.03,-6.84 -0.01,0 -0.03,0 -0.04,0l-39.31 0c-0.01,0 -0.03,0 -0.04,0 -4.68,0 -8.95,2.65 -11.03,6.84l-4.83 9.66 -9.83 0c-2.28,0 -4.13,1.85 -4.13,4.13 0,2.28 1.85,4.13 4.13,4.13l4.13 0 -5.78 7.7c-1.6,2.14 -2.47,4.75 -2.47,7.43l0 9.63c0.01,2.93 1.58,5.64 4.13,7.1l0 5.27c0,4.56 3.7,8.25 8.25,8.25l2.33 0c4.56,0 8.25,-3.69 8.25,-8.25l0 -1.17 53.11 0 0 1.17c0,4.56 3.7,8.25 8.25,8.25l2.33 0c4.56,0 8.25,-3.69 8.25,-8.25l0 -5.27c2.54,-1.46 4.12,-4.17 4.13,-7.1l0 -9.63c-0,-2.68 -0.87,-5.28 -2.48,-7.43l-5.78 -7.7z"/>
  <path class="fil3" d="M157.73 115.35l4.13 0c2.28,0 4.13,-1.85 4.13,-4.13 0,-2.28 -1.85,-4.13 -4.13,-4.13l-9.83 0 -4.83 -9.66c-2.08,-4.19 -6.35,-6.84 -11.03,-6.84 -0.01,0 -0.03,0 -0.04,0l-39.31 0c-0.01,0 -0.03,0 -0.04,0 -4.68,0 -8.95,2.65 -11.03,6.84l-4.83 9.66 -9.83 0c-2.28,0 -4.13,1.85 -4.13,4.13 0,2.28 1.85,4.13 4.13,4.13l4.13 0 -5.78 7.7c-1.6,2.14 -2.47,4.75 -2.47,7.43l0 9.63c0.01,2.93 1.58,5.64 4.13,7.1l0 5.27c0,4.56 3.7,8.25 8.25,8.25l2.33 0c4.56,0 8.25,-3.69 8.25,-8.25l0 -1.17 53.11 0 0 1.17c0,4.56 3.7,8.25 8.25,8.25l2.33 0c4.56,0 8.25,-3.69 8.25,-8.25l0 -5.27c2.54,-1.46 4.12,-4.17 4.13,-7.1l0 -9.63c-0,-2.68 -0.87,-5.28 -2.48,-7.43l-5.78 -7.7zm-3.83 12.06c1.57,0 6.85,-0.66 6.26,2.18l-0.73 3.53c-0.24,1.17 -1.01,1.98 -2.18,2.18l-12.44 2.18c-1.18,0.21 -2.19,-0.98 -2.19,-2.18 0,-5.53 7.34,-7.9 11.27,-7.9zm-74.96 0c-1.57,0 -6.85,-0.66 -6.27,2.18l0.73 3.53c0.24,1.17 1,1.98 2.19,2.18l12.44 2.18c1.18,0.21 2.18,-0.98 2.18,-2.18 0,-5.53 -7.34,-7.9 -11.27,-7.9zm19.81 0.88l35.33 0c1.16,0 2.53,0.79 2.1,1.6l-2.67 5.07c-0.43,0.82 -0.95,1.6 -2.1,1.6l-29.98 0c-1.15,0 -1.67,-0.79 -2.1,-1.6l-2.67 -5.07c-0.43,-0.82 0.95,-1.6 2.1,-1.6zm-13.54 -19.09l5.97 -11.94c0.7,-1.4 2.87,-2.28 4.43,-2.28l41.54 0c1.56,0 4.07,1.57 4.77,2.97l5.63 11.25c1,1.94 1.73,4.5 -1.43,4.5l-59.44 0c-0,0 -0,0 -0,0 -2.29,0 -2.78,-1.87 -1.47,-4.5z"/>
  <path class="fil3" d="M117.84 68.53l0.26 -0.02c6.57,-0.5 11.75,-5.99 11.75,-12.69 0,-5.72 -7.13,-17.25 -10.72,-21.91 -0.48,-0.63 -1.22,-0.99 -2,-0.99 -0.79,0 -1.53,0.37 -2,0.99 -3.56,4.66 -10.72,16.19 -10.72,21.91 0,7.03 5.7,12.72 12.72,12.72 0.24,0 0.47,-0.01 0.71,-0.02zm42.78 -4.75c0,-4.63 -5.78,-13.98 -8.69,-17.76 -0.39,-0.51 -0.99,-0.8 -1.62,-0.8 -0.64,0 -1.24,0.3 -1.62,0.8 -2.89,3.78 -8.69,13.12 -8.69,17.76 -0,5.69 4.62,10.31 10.31,10.31 5.69,0 10.31,-4.62 10.31,-10.31zm-66.01 0c0,-4.63 -5.77,-13.98 -8.69,-17.76 -0.39,-0.51 -0.99,-0.8 -1.62,-0.8 -0.64,0 -1.24,0.3 -1.62,0.8 -2.91,3.78 -8.69,13.12 -8.69,17.76 0,5.69 4.62,10.31 10.31,10.31 5.69,0 10.31,-4.62 10.31,-10.31l-0 0z"/>
  <path class="fil4" d="M89.36 199.46l0 -16.08 3.28 0 0 13.34 8.13 0 0 2.74 -11.41 0zm17.4 0l0 -16.21 3.28 0 0 16.21 -3.28 0zm14.33 0l-5.8 -16.21 3.55 0 4.12 12 3.95 -12 3.49 0 -5.77 16.21 -3.54 0zm14.73 0l0 -16.21 12 0 0 2.74 -8.72 0 0 3.6 8.11 0 0 2.74 -8.11 0 0 4.39 9.04 0 0 2.74 -12.32 0z"/>
  <path class="fil5" d="M69.14 7.23l93.73 0c17.03,0 32.51,6.97 43.73,18.19 11.22,11.22 18.19,26.7 18.19,43.73l0 93.73c0,17.03 -6.97,32.51 -18.19,43.73 -11.22,11.22 -26.7,18.19 -43.73,18.19l-93.73 0c-17.03,0 -32.51,-6.97 -43.73,-18.19 -11.22,-11.22 -18.19,-26.7 -18.19,-43.73l0 -93.73c0,-17.03 6.97,-32.51 18.19,-43.73 11.22,-11.22 26.7,-18.19 43.73,-18.19zm93.73 1.33l-93.73 0c-16.66,0 -31.81,6.82 -42.79,17.8 -10.98,10.98 -17.8,26.13 -17.8,42.79l0 93.73c0,16.66 6.82,31.81 17.8,42.79 10.98,10.98 26.13,17.8 42.79,17.8l93.73 0c16.66,0 31.81,-6.82 42.79,-17.8 10.98,-10.98 17.8,-26.13 17.8,-42.79l0 -93.73c0,-16.66 -6.82,-31.81 -17.8,-42.79 -10.98,-10.98 -26.13,-17.8 -42.79,-17.8z"/>
  <path class="fil6" d="M195.38 115.35l4.13 0c2.28,0 4.13,-1.85 4.13,-4.13 0,-2.28 -1.85,-4.13 -4.13,-4.13l-9.83 0 -4.83 -9.66c-2.07,-4.19 -6.35,-6.84 -11.03,-6.84 -0.01,0 -0.03,0 -0.04,0l-18.77 0c4.68,0 8.95,2.65 11.03,6.84l4.83 9.66 9.83 0c2.28,0 4.13,1.85 4.13,4.13 0,2.28 -1.85,4.13 -4.13,4.13l-4.13 0 5.78 7.7c1.6,2.14 2.47,4.75 2.48,7.43l0 9.63c-0.01,2.93 -1.58,5.64 -4.13,7.1l0 5.27c0,0.15 -0,0.29 -0.01,0.44 0.23,4.35 3.83,7.81 8.24,7.81l2.33 0c4.56,0 8.25,-3.69 8.25,-8.25l0 -5.27c2.54,-1.46 4.12,-4.17 4.13,-7.1l0 -9.63c-0,-2.68 -0.87,-5.28 -2.48,-7.43l-5.78 -7.7zm-117.87 -24.76l-18.79 0c-0.01,0 -0.03,0 -0.04,0 -4.68,0 -8.95,2.65 -11.03,6.84l-4.83 9.66 -9.83 0c-2.28,0 -4.13,1.85 -4.13,4.13 0,2.28 1.85,4.13 4.13,4.13l4.13 0 -5.78 7.7c-1.6,2.14 -2.47,4.75 -2.47,7.43l0 9.63c0.01,2.93 1.58,5.64 4.13,7.1l0 5.27c0,4.56 3.7,8.25 8.25,8.25l2.33 0c4.56,0 8.25,-3.69 8.25,-8.25l0 -1.17 0 -4.11c-2.54,-1.46 -4.12,-4.17 -4.13,-7.1l0 -9.63c0,-2.68 0.87,-5.28 2.47,-7.43l5.78 -7.7 -4.13 0c-2.28,0 -4.13,-1.85 -4.13,-4.13 0,-2.28 1.85,-4.13 4.13,-4.13l9.83 0 4.83 -9.66c2.08,-4.19 6.35,-6.84 11.03,-6.84z"/>
 </g>
</svg>
