<?xml version="1.0" encoding="UTF-8"?>
<!DOCTYPE svg PUBLIC "-//W3C//DTD SVG 1.1//EN" "http://www.w3.org/Graphics/SVG/1.1/DTD/svg11.dtd">
<!-- Creator: CorelDRAW 2018 (64-Bit) -->
<svg xmlns="http://www.w3.org/2000/svg" xml:space="preserve" width="6.35mm" height="6.35mm" version="1.1" style="shape-rendering:geometricPrecision; text-rendering:geometricPrecision; image-rendering:optimizeQuality; fill-rule:evenodd; clip-rule:evenodd"
viewBox="0 0 2.75 2.75"
 xmlns:xlink="http://www.w3.org/1999/xlink">
 <defs>
  <style type="text/css">
   <![CDATA[
    .fil0 {fill:#1392DF}
    .fil1 {fill:white}
   ]]>
  </style>
 </defs>
 <g id="Слой_x0020_1">
  <metadata id="CorelCorpID_0Corel-Layer"/>
  <circle class="fil0" cx="1.38" cy="1.38" r="1.38"/>
  <g id="_2230252996704">
   <g>
    <g>
     <path class="fil1" d="M1.38 0.52c-0.34,0 -0.62,0.28 -0.62,0.62 0,0.42 0.56,1.05 0.58,1.07 0.02,0.02 0.06,0.02 0.08,0 0.02,-0.03 0.58,-0.65 0.58,-1.07 0,-0.34 -0.28,-0.62 -0.62,-0.62zm0 0.93c-0.17,0 -0.31,-0.14 -0.31,-0.31 0,-0.17 0.14,-0.31 0.31,-0.31 0.17,0 0.31,0.14 0.31,0.31 0,0.17 -0.14,0.31 -0.31,0.31z"/>
    </g>
   </g>
   <g>
   </g>
   <g>
   </g>
   <g>
   </g>
   <g>
   </g>
   <g>
   </g>
   <g>
   </g>
   <g>
   </g>
   <g>
   </g>
   <g>
   </g>
   <g>
   </g>
   <g>
   </g>
   <g>
   </g>
   <g>
   </g>
   <g>
   </g>
   <g>
   </g>
  </g>
 </g>
</svg>
