<?xml version="1.0" encoding="UTF-8"?>
<!DOCTYPE svg PUBLIC "-//W3C//DTD SVG 1.1//EN" "http://www.w3.org/Graphics/SVG/1.1/DTD/svg11.dtd">
<!-- Creator: CorelDRAW 2018 (64-Bit) -->
<svg xmlns="http://www.w3.org/2000/svg" xml:space="preserve" width="10.4474mm" height="9.955mm" version="1.1" style="shape-rendering:geometricPrecision; text-rendering:geometricPrecision; image-rendering:optimizeQuality; fill-rule:evenodd; clip-rule:evenodd"
viewBox="0 0 68.72 65.48"
 xmlns:xlink="http://www.w3.org/1999/xlink">
 <defs>
  <style type="text/css">
   <![CDATA[
    .fil1 {fill:white}
    .fil2 {fill:white;fill-rule:nonzero}
    .fil3 {fill:white;fill-opacity:0.200000}
    .fil0 {fill:white;fill-opacity:0.349020}
   ]]>
  </style>
 </defs>
 <g id="Слой_x0020_1">
  <metadata id="CorelCorpID_0Corel-Layer"/>
  <g id="_2230435866032">
   <path class="fil0" d="M58.08 32.41l1.62 0c0.9,0 1.62,-0.73 1.62,-1.62 0,-0.9 -0.73,-1.62 -1.62,-1.62l-3.87 0 -1.9 -3.8c-0.82,-1.65 -2.5,-2.69 -4.34,-2.69 -0.01,0 -0.01,0 -0.02,0l-30.44 0c-0.01,0 -0.01,0 -0.02,0 -1.84,0 -3.52,1.04 -4.34,2.69l-1.9 3.8 -3.87 0c-0.9,0 -1.62,0.73 -1.62,1.62 0,0.9 0.73,1.62 1.62,1.62l1.62 0 -2.27 3.03c-0.63,0.84 -0.97,1.87 -0.97,2.92l0 3.79c0,1.15 0.62,2.22 1.62,2.79l0 2.07c0,1.79 1.45,3.24 3.24,3.24l0.92 0c1.79,0 3.25,-1.45 3.25,-3.24l0 -0.46 35.86 0 0 0.46c0,1.79 1.45,3.24 3.25,3.24l0.92 0c1.79,0 3.25,-1.45 3.25,-3.24l0 -2.07c1,-0.57 1.62,-1.64 1.62,-2.79l0 -3.79c-0,-1.05 -0.34,-2.08 -0.97,-2.92l-2.27 -3.03zm-8.91 4.74c0.62,0 2.69,-0.26 2.46,0.86l-0.29 1.39c-0.09,0.46 -0.4,0.78 -0.86,0.86l-4.89 0.86c-0.46,0.08 -0.86,-0.39 -0.86,-0.86 0,-2.18 2.88,-3.11 4.43,-3.11zm-29.48 0c-0.62,0 -2.69,-0.26 -2.46,0.86l0.29 1.39c0.1,0.46 0.4,0.78 0.86,0.86l4.89 0.86c0.46,0.08 0.86,-0.39 0.86,-0.86 0,-2.18 -2.88,-3.11 -4.43,-3.11zm7.79 0.35l13.89 0c0.46,0 1,0.31 0.83,0.63l-1.05 1.99c-0.17,0.32 -0.37,0.63 -0.83,0.63l-11.79 0c-0.45,0 -0.66,-0.31 -0.83,-0.63l-1.05 -1.99c-0.17,-0.32 0.37,-0.63 0.83,-0.63zm-5.32 -7.51l2.35 -4.7c0.27,-0.55 1.13,-0.9 1.74,-0.9l16.33 0c0.61,0 1.6,0.62 1.88,1.17l2.21 4.43c0.39,0.76 0.68,1.77 -0.56,1.77l-23.37 0c-0,0 -0,0 -0,0 -0.9,0 -1.09,-0.74 -0.58,-1.77z"/>
   <path class="fil1" d="M50.59 32.41l1.62 0c0.9,0 1.62,-0.73 1.62,-1.62 0,-0.9 -0.73,-1.62 -1.62,-1.62l-3.87 0 -1.9 -3.8c-0.82,-1.65 -2.5,-2.69 -4.34,-2.69 -0.01,0 -0.01,0 -0.02,0l-15.46 0c-0.01,0 -0.01,0 -0.02,0 -1.84,0 -3.52,1.04 -4.34,2.69l-1.9 3.8 -3.86 0c-0.9,0 -1.62,0.73 -1.62,1.62 0,0.9 0.73,1.62 1.62,1.62l1.62 0 -2.27 3.03c-0.63,0.84 -0.97,1.87 -0.97,2.92l0 3.79c0,1.15 0.62,2.22 1.62,2.79l0 2.07c0,1.79 1.45,3.25 3.24,3.25l0.92 0c1.79,0 3.25,-1.45 3.25,-3.25l0 -0.46 20.88 0 0 0.46c0,1.79 1.45,3.25 3.25,3.25l0.92 0c1.79,0 3.24,-1.45 3.24,-3.25l0 -2.07c1,-0.57 1.62,-1.64 1.62,-2.79l0 -3.79c-0,-1.05 -0.34,-2.08 -0.97,-2.92l-2.27 -3.03zm-1.51 4.74c0.62,0 2.69,-0.26 2.46,0.86l-0.29 1.39c-0.09,0.46 -0.4,0.78 -0.86,0.86l-4.89 0.86c-0.46,0.08 -0.86,-0.39 -0.86,-0.86 0,-2.18 2.88,-3.11 4.43,-3.11zm-29.47 0c-0.62,0 -2.69,-0.26 -2.46,0.86l0.29 1.39c0.1,0.46 0.4,0.78 0.86,0.86l4.89 0.86c0.46,0.08 0.86,-0.39 0.86,-0.86 0,-2.18 -2.88,-3.11 -4.43,-3.11zm7.79 0.35l13.89 0c0.46,0 1,0.31 0.83,0.63l-1.05 1.99c-0.17,0.32 -0.37,0.63 -0.83,0.63l-11.79 0c-0.45,0 -0.66,-0.31 -0.83,-0.63l-1.05 -1.99c-0.17,-0.32 0.37,-0.63 0.83,-0.63zm-5.32 -7.51l2.35 -4.7c0.27,-0.55 1.13,-0.9 1.74,-0.9l16.33 0c0.61,0 1.6,0.62 1.88,1.17l2.21 4.43c0.39,0.76 0.68,1.77 -0.56,1.77l-23.37 0c-0,0 -0,0 -0,0 -0.9,0 -1.09,-0.74 -0.58,-1.77z"/>
   <path class="fil1" d="M34.98 14l0.1 -0.01c2.58,-0.19 4.62,-2.35 4.62,-4.99 0,-2.25 -2.8,-6.78 -4.22,-8.62 -0.19,-0.25 -0.48,-0.39 -0.79,-0.39 -0.31,0 -0.6,0.14 -0.79,0.39 -1.4,1.83 -4.22,6.37 -4.22,8.62 0,2.76 2.24,5 5,5 0.09,0 0.19,-0 0.28,-0.01zm16.82 -1.87c0,-1.82 -2.27,-5.5 -3.42,-6.98 -0.15,-0.2 -0.39,-0.32 -0.64,-0.32 -0.25,0 -0.49,0.12 -0.64,0.32 -1.14,1.49 -3.42,5.16 -3.42,6.98 -0,2.24 1.82,4.06 4.05,4.06 2.24,0 4.06,-1.82 4.06,-4.06zm-25.96 0c0,-1.82 -2.27,-5.5 -3.42,-6.98 -0.15,-0.2 -0.39,-0.32 -0.64,-0.32 -0.25,0 -0.49,0.12 -0.64,0.32 -1.15,1.49 -3.42,5.16 -3.42,6.98 0,2.24 1.82,4.06 4.06,4.06 2.24,0 4.06,-1.82 4.06,-4.06l-0 0z"/>
   <path class="fil2" d="M23.78 65.48l0 -6.32 1.29 0 0 5.24 3.2 0 0 1.08 -4.49 0zm6.84 0l0 -6.38 1.29 0 0 6.38 -1.29 0zm5.63 0l-2.28 -6.38 1.39 0 1.62 4.72 1.55 -4.72 1.37 0 -2.27 6.38 -1.39 0zm5.79 0l0 -6.38 4.72 0 0 1.08 -3.43 0 0 1.42 3.19 0 0 1.08 -3.19 0 0 1.73 3.55 0 0 1.08 -4.84 0z"/>
   <path class="fil3" d="M65.48 32.41l1.62 0c0.9,0 1.62,-0.73 1.62,-1.62 0,-0.9 -0.73,-1.62 -1.62,-1.62l-3.87 0 -1.9 -3.8c-0.82,-1.65 -2.5,-2.69 -4.34,-2.69 -0.01,0 -0.01,0 -0.02,0l-7.38 0c1.84,0 3.52,1.04 4.34,2.69l1.9 3.8 3.87 0c0.9,0 1.62,0.73 1.62,1.62 0,0.9 -0.73,1.62 -1.62,1.62l-1.62 0 2.27 3.03c0.63,0.84 0.97,1.87 0.97,2.92l0 3.79c-0,1.15 -0.62,2.22 -1.62,2.79l0 2.07c0,0.06 -0,0.12 -0,0.17 0.09,1.71 1.51,3.07 3.24,3.07l0.92 0c1.79,0 3.25,-1.45 3.25,-3.24l0 -2.07c1,-0.57 1.62,-1.64 1.62,-2.79l0 -3.79c-0,-1.05 -0.34,-2.08 -0.97,-2.92l-2.27 -3.03zm-46.35 -9.73l-7.39 0c-0.01,0 -0.01,0 -0.02,0 -1.84,0 -3.52,1.04 -4.34,2.69l-1.9 3.8 -3.86 0c-0.9,0 -1.62,0.73 -1.62,1.62 0,0.9 0.73,1.62 1.62,1.62l1.62 0 -2.27 3.03c-0.63,0.84 -0.97,1.87 -0.97,2.92l0 3.79c0,1.15 0.62,2.22 1.62,2.79l0 2.07c0,1.79 1.45,3.24 3.24,3.24l0.92 0c1.79,0 3.24,-1.45 3.24,-3.24l0 -0.46 0 -1.62c-1,-0.57 -1.62,-1.64 -1.62,-2.79l0 -3.79c0,-1.05 0.34,-2.08 0.97,-2.92l2.27 -3.03 -1.62 0c-0.9,0 -1.62,-0.73 -1.62,-1.62 0,-0.9 0.73,-1.62 1.62,-1.62l3.87 0 1.9 -3.8c0.82,-1.65 2.5,-2.69 4.34,-2.69z"/>
  </g>
 </g>
</svg>
