<?xml version="1.0" encoding="UTF-8"?>
<!DOCTYPE svg PUBLIC "-//W3C//DTD SVG 1.1//EN" "http://www.w3.org/Graphics/SVG/1.1/DTD/svg11.dtd">
<!-- Creator: CorelDRAW 2018 (64-Bit) -->
<svg xmlns="http://www.w3.org/2000/svg" xml:space="preserve" width="26.3081mm" height="25.0682mm" version="1.1" style="shape-rendering:geometricPrecision; text-rendering:geometricPrecision; image-rendering:optimizeQuality; fill-rule:evenodd; clip-rule:evenodd"
viewBox="0 0 301.43 287.22"
 xmlns:xlink="http://www.w3.org/1999/xlink">
 <defs>
  <style type="text/css">
   <![CDATA[
    .fil2 {fill:#357EF3}
    .fil1 {fill:white}
    .fil3 {fill:#357EF3;fill-rule:nonzero}
    .fil4 {fill:#357EF3;fill-opacity:0.200000}
    .fil0 {fill:#357EF3;fill-opacity:0.349020}
   ]]>
  </style>
 </defs>
 <g id="Слой_x0020_1">
  <metadata id="CorelCorpID_0Corel-Layer"/>
  <path class="fil0" d="M254.75 142.16l7.12 0c3.93,0 7.12,-3.19 7.12,-7.12 0,-3.93 -3.19,-7.12 -7.12,-7.12l-16.95 0 -8.33 -16.67c-3.58,-7.23 -10.95,-11.8 -19.02,-11.8 -0.02,0 -0.05,0 -0.08,0l-133.49 0c-0.03,0 -0.05,0 -0.08,0 -8.07,0 -15.44,4.57 -19.02,11.8l-8.33 16.67 -16.95 0c-3.93,0 -7.12,3.19 -7.12,7.12 0,3.93 3.19,7.12 7.12,7.12l7.12 0 -9.97 13.28c-2.76,3.7 -4.26,8.19 -4.27,12.81l0 16.61c0.01,5.06 2.73,9.73 7.12,12.25l0 9.1c0,7.86 6.37,14.23 14.23,14.23l4.02 0c7.86,0 14.23,-6.37 14.23,-14.23l0 -2.01 157.28 0 0 2.01c0,7.86 6.38,14.23 14.24,14.23l4.02 0c7.86,0 14.23,-6.37 14.23,-14.23l0 -9.1c4.39,-2.52 7.1,-7.19 7.12,-12.25l0 -16.61c-0.01,-4.62 -1.51,-9.11 -4.27,-12.81l-9.96 -13.29z"/>
  <path class="fil1" d="M222.25 142.16l7.12 0c3.93,0 7.12,-3.19 7.12,-7.12 0,-3.93 -3.19,-7.12 -7.12,-7.12l-16.95 0 -8.33 -16.67c-3.58,-7.23 -10.95,-11.8 -19.02,-11.8 -0.02,0 -0.05,0 -0.08,0l-67.81 0c-0.03,0 -0.05,0 -0.08,0 -8.07,0 -15.44,4.57 -19.02,11.8l-8.33 16.67 -16.95 0c-3.93,0 -7.12,3.19 -7.12,7.12 0,3.93 3.19,7.12 7.12,7.12l7.12 0 -9.97 13.28c-2.76,3.7 -4.26,8.19 -4.27,12.81l0 16.61c0.01,5.06 2.73,9.73 7.12,12.25l0 9.1c0,7.86 6.37,14.23 14.23,14.23l4.02 0c7.86,0 14.23,-6.37 14.23,-14.23l0 -2.01 91.59 0 0 2.01c0,7.86 6.38,14.23 14.23,14.23l4.02 0c7.86,0 14.23,-6.37 14.23,-14.23l0 -9.1c4.39,-2.52 7.1,-7.19 7.12,-12.25l0 -16.61c-0.01,-4.62 -1.51,-9.11 -4.27,-12.81l-9.96 -13.29z"/>
  <path class="fil2" d="M222.25 142.16l7.12 0c3.93,0 7.12,-3.19 7.12,-7.12 0,-3.93 -3.19,-7.12 -7.12,-7.12l-16.95 0 -8.33 -16.67c-3.58,-7.23 -10.95,-11.8 -19.02,-11.8 -0.02,0 -0.05,0 -0.08,0l-67.81 0c-0.03,0 -0.05,0 -0.08,0 -8.07,0 -15.44,4.57 -19.02,11.8l-8.33 16.67 -16.95 0c-3.93,0 -7.12,3.19 -7.12,7.12 0,3.93 3.19,7.12 7.12,7.12l7.12 0 -9.97 13.28c-2.76,3.7 -4.26,8.19 -4.27,12.81l0 16.61c0.01,5.06 2.73,9.73 7.12,12.25l0 9.1c0,7.86 6.37,14.23 14.23,14.23l4.02 0c7.86,0 14.23,-6.37 14.23,-14.23l0 -2.01 91.59 0 0 2.01c0,7.86 6.38,14.23 14.23,14.23l4.02 0c7.86,0 14.23,-6.37 14.23,-14.23l0 -9.1c4.39,-2.52 7.1,-7.19 7.12,-12.25l0 -16.61c-0.01,-4.62 -1.51,-9.11 -4.27,-12.81l-9.96 -13.29zm-6.61 20.81c2.71,0 11.81,-1.14 10.8,3.77l-1.26 6.09c-0.42,2.02 -1.73,3.41 -3.77,3.77l-21.45 3.77c-2.03,0.36 -3.77,-1.7 -3.77,-3.77 0,-9.54 12.65,-13.63 19.45,-13.63zm-129.28 0c-2.71,0 -11.82,-1.14 -10.81,3.77l1.26 6.09c0.42,2.02 1.73,3.41 3.77,3.77l21.45 3.77c2.03,0.36 3.77,-1.7 3.77,-3.77 0,-9.54 -12.65,-13.63 -19.44,-13.63zm34.17 1.52l60.93 0c2,0 4.37,1.36 3.63,2.76l-4.61 8.75c-0.74,1.41 -1.64,2.77 -3.63,2.77l-51.71 0c-1.99,0 -2.89,-1.36 -3.63,-2.77l-4.61 -8.75c-0.74,-1.41 1.63,-2.76 3.63,-2.76zm-23.35 -32.93l10.3 -20.6c1.2,-2.41 4.95,-3.94 7.64,-3.94l71.64 0c2.69,0 7.02,2.71 8.23,5.12l9.7 19.41c1.72,3.35 2.99,7.76 -2.46,7.76l-102.51 0c-0,0 -0,0 -0.01,0 -3.94,0 -4.8,-3.23 -2.53,-7.76z"/>
  <path class="fil2" d="M153.45 61.41l0.45 -0.03c11.34,-0.86 20.27,-10.33 20.27,-21.88 0,-9.86 -12.29,-29.75 -18.49,-37.79 -0.82,-1.08 -2.1,-1.71 -3.46,-1.71 -1.36,0 -2.63,0.63 -3.46,1.71 -6.14,8.04 -18.49,27.93 -18.49,37.79 0,12.12 9.83,21.94 21.94,21.94 0.41,0 0.82,-0.01 1.22,-0.04zm73.79 -8.19c0,-7.99 -9.96,-24.11 -14.99,-30.63 -0.67,-0.87 -1.7,-1.39 -2.8,-1.39 -1.1,0 -2.13,0.51 -2.8,1.39 -4.98,6.52 -14.98,22.64 -14.98,30.63 -0,9.82 7.96,17.79 17.79,17.79 9.82,0 17.79,-7.96 17.79,-17.79zm-113.84 0c0,-7.99 -9.96,-24.11 -14.98,-30.63 -0.67,-0.87 -1.7,-1.39 -2.8,-1.39 -1.1,0 -2.13,0.51 -2.8,1.39 -5.02,6.52 -14.99,22.64 -14.99,30.63 0,9.82 7.97,17.79 17.79,17.79 9.82,0 17.79,-7.96 17.79,-17.79l-0 0z"/>
  <path class="fil3" d="M104.33 287.22l0 -27.73 5.66 0 0 23 14.02 0 0 4.73 -19.68 0zm30.02 0l0 -27.96 5.66 0 0 27.96 -5.66 0zm24.71 0l-10 -27.96 6.12 0 7.1 20.7 6.81 -20.7 6.02 0 -9.95 27.96 -6.1 0zm25.41 0l0 -27.96 20.7 0 0 4.73 -15.04 0 0 6.21 13.98 0 0 4.73 -13.98 0 0 7.58 15.58 0 0 4.73 -21.25 0z"/>
  <path class="fil4" d="M287.2 142.16l7.12 0c3.93,0 7.12,-3.19 7.12,-7.12 0,-3.93 -3.19,-7.12 -7.12,-7.12l-16.95 0 -8.33 -16.67c-3.58,-7.23 -10.95,-11.8 -19.02,-11.8 -0.02,0 -0.06,0 -0.08,0l-32.37 0c8.07,0 15.44,4.57 19.02,11.8l8.33 16.67 16.95 0c3.93,0 7.12,3.19 7.12,7.12 0,3.93 -3.18,7.12 -7.12,7.12l-7.12 0 9.96 13.29c2.76,3.7 4.26,8.2 4.27,12.81l0 16.61c-0.01,5.06 -2.73,9.73 -7.12,12.25l0 9.1c0,0.25 -0.01,0.51 -0.02,0.76 0.4,7.51 6.61,13.48 14.22,13.48l4.02 0c7.86,0 14.23,-6.37 14.23,-14.23l0 -9.1c4.39,-2.52 7.1,-7.19 7.12,-12.25l0 -16.61c-0.01,-4.62 -1.51,-9.11 -4.27,-12.81l-9.96 -13.29zm-203.29 -42.7l-32.41 0c-0.03,0 -0.05,0 -0.07,0 -8.07,0 -15.44,4.57 -19.02,11.8l-8.33 16.67 -16.95 0c-3.93,0 -7.12,3.19 -7.12,7.12 0,3.93 3.18,7.12 7.12,7.12l7.12 0 -9.96 13.28c-2.76,3.7 -4.26,8.19 -4.27,12.81l0 16.61c0.01,5.06 2.73,9.73 7.12,12.25l0 9.1c0,7.86 6.37,14.23 14.23,14.23l4.02 0c7.86,0 14.23,-6.37 14.23,-14.23l0 -2.01 0 -7.09c-4.39,-2.52 -7.1,-7.19 -7.12,-12.25l0 -16.61c0.01,-4.62 1.51,-9.11 4.27,-12.81l9.97 -13.28 -7.12 0c-3.93,0 -7.12,-3.19 -7.12,-7.12 0,-3.93 3.19,-7.12 7.12,-7.12l16.95 0 8.33 -16.67c3.58,-7.23 10.96,-11.8 19.02,-11.8z"/>
 </g>
</svg>
