<?xml version="1.0" encoding="UTF-8"?>
<!DOCTYPE svg PUBLIC "-//W3C//DTD SVG 1.1//EN" "http://www.w3.org/Graphics/SVG/1.1/DTD/svg11.dtd">
<!-- Creator: CorelDRAW 2018 (64-Bit) -->
<svg xmlns="http://www.w3.org/2000/svg" xml:space="preserve" width="6.5677mm" height="4.344mm" version="1.1" style="shape-rendering:geometricPrecision; text-rendering:geometricPrecision; image-rendering:optimizeQuality; fill-rule:evenodd; clip-rule:evenodd"
viewBox="0 0 5.62 3.72"
 xmlns:xlink="http://www.w3.org/1999/xlink">
 <defs>
  <style type="text/css">
   <![CDATA[
    .fil0 {fill:white}
   ]]>
  </style>
 </defs>
 <g id="Слой_x0020_1">
  <metadata id="CorelCorpID_0Corel-Layer"/>
  <path class="fil0" d="M0.22 3.72l5.18 0c0.12,0 0.22,-0.1 0.22,-0.22 0,-0.12 -0.1,-0.22 -0.22,-0.22l-5.18 0c-0.12,0 -0.22,0.1 -0.22,0.22 0,0.12 0.1,0.22 0.22,0.22zm0 -3.28l5.18 0c0.12,0 0.22,-0.1 0.22,-0.22 0,-0.12 -0.1,-0.22 -0.22,-0.22l-5.18 0c-0.12,0 -0.22,0.1 -0.22,0.22 0,0.12 0.1,0.22 0.22,0.22zm0 1.64l5.18 0c0.12,0 0.22,-0.1 0.22,-0.22 0,-0.12 -0.1,-0.22 -0.22,-0.22l-5.18 0c-0.12,0 -0.22,0.1 -0.22,0.22 0,0.12 0.1,0.22 0.22,0.22z"/>
 </g>
</svg>
