<?xml version="1.0" encoding="UTF-8"?>
<!DOCTYPE svg PUBLIC "-//W3C//DTD SVG 1.1//EN" "http://www.w3.org/Graphics/SVG/1.1/DTD/svg11.dtd">
<!-- Creator: CorelDRAW 2018 (64-Bit) -->
<svg xmlns="http://www.w3.org/2000/svg" xml:space="preserve" width="9.8874mm" height="1.4987mm" version="1.1" style="shape-rendering:geometricPrecision; text-rendering:geometricPrecision; image-rendering:optimizeQuality; fill-rule:evenodd; clip-rule:evenodd"
viewBox="0 0 48.62 7.37"
 xmlns:xlink="http://www.w3.org/1999/xlink">
 <defs>
  <style type="text/css">
   <![CDATA[
    .fil0 {fill:#FFD426}
   ]]>
  </style>
 </defs>
 <g id="Слой_x0020_1">
  <metadata id="CorelCorpID_0Corel-Layer"/>
  <path class="fil0" d="M4.05 0.12l0.98 2.33 2.52 0.22c0.17,0.01 0.25,0.23 0.11,0.35l-1.91 1.65 0.57 2.46c0.04,0.17 -0.15,0.31 -0.3,0.21l-2.16 -1.3 -2.16 1.3c-0.15,0.09 -0.33,-0.04 -0.3,-0.21l0.57 -2.46 -1.91 -1.65c-0.13,-0.11 -0.06,-0.33 0.11,-0.35l2.52 -0.22 0.98 -2.33c0.07,-0.16 0.3,-0.16 0.37,0l0 0zm40.9 0l0.98 2.33 2.52 0.22c0.17,0.01 0.25,0.23 0.11,0.35l-1.91 1.65 0.57 2.46c0.04,0.17 -0.15,0.31 -0.3,0.21l-2.16 -1.3 -2.16 1.3c-0.15,0.09 -0.34,-0.04 -0.3,-0.21l0.57 -2.46 -1.91 -1.65c-0.13,-0.11 -0.06,-0.33 0.11,-0.35l2.52 -0.22 0.98 -2.33c0.07,-0.16 0.3,-0.16 0.37,0l0 0zm-10.22 0l0.98 2.33 2.52 0.22c0.17,0.01 0.25,0.23 0.11,0.35l-1.91 1.65 0.57 2.46c0.04,0.17 -0.15,0.31 -0.3,0.21l-2.16 -1.3 -2.16 1.3c-0.15,0.09 -0.33,-0.04 -0.3,-0.21l0.57 -2.46 -1.91 -1.65c-0.13,-0.11 -0.06,-0.33 0.11,-0.35l2.52 -0.22 0.98 -2.33c0.07,-0.16 0.3,-0.16 0.37,0l0 0zm-10.22 0l0.98 2.33 2.52 0.22c0.17,0.01 0.25,0.23 0.11,0.35l-1.91 1.65 0.57 2.46c0.04,0.17 -0.15,0.31 -0.3,0.21l-2.16 -1.3 -2.16 1.3c-0.15,0.09 -0.33,-0.04 -0.3,-0.21l0.57 -2.46 -1.91 -1.65c-0.13,-0.11 -0.06,-0.33 0.11,-0.35l2.52 -0.22 0.98 -2.33c0.07,-0.16 0.3,-0.16 0.37,0l0 0zm-10.22 0l0.98 2.33 2.52 0.22c0.17,0.01 0.25,0.23 0.11,0.35l-1.91 1.65 0.57 2.46c0.04,0.17 -0.15,0.31 -0.3,0.21l-2.16 -1.3 -2.16 1.3c-0.15,0.09 -0.34,-0.04 -0.3,-0.21l0.57 -2.46 -1.91 -1.65c-0.13,-0.11 -0.06,-0.33 0.11,-0.35l2.52 -0.22 0.98 -2.33c0.07,-0.16 0.3,-0.16 0.37,0l0 0z"/>
 </g>
</svg>
