<?xml version="1.0" encoding="UTF-8"?>
<!DOCTYPE svg PUBLIC "-//W3C//DTD SVG 1.1//EN" "http://www.w3.org/Graphics/SVG/1.1/DTD/svg11.dtd">
<!-- Creator: CorelDRAW 2018 (64-Bit) -->
<svg xmlns="http://www.w3.org/2000/svg" xml:space="preserve" width="8.0264mm" height="8.0264mm" version="1.1" style="shape-rendering:geometricPrecision; text-rendering:geometricPrecision; image-rendering:optimizeQuality; fill-rule:evenodd; clip-rule:evenodd"
viewBox="0 0 3.04 3.04"
 xmlns:xlink="http://www.w3.org/1999/xlink">
 <defs>
  <style type="text/css">
   <![CDATA[
    .fil0 {fill:#116ED6}
    .fil1 {fill:white}
   ]]>
  </style>
 </defs>
 <g id="Слой_x0020_1">
  <metadata id="CorelCorpID_0Corel-Layer"/>
  <circle class="fil0" cx="1.52" cy="1.52" r="1.52"/>
  <g id="_2230258042000">
   <g>
    <g>
     <path class="fil1" d="M1 1.78l0.03 0.04c0.01,0.01 0.03,0.02 0.04,0.02 0.02,0 0.03,-0.01 0.04,-0.02l0.4 -0.4 0.4 0.4c0.01,0.01 0.03,0.02 0.04,0.02 0.02,0 0.03,-0.01 0.04,-0.02l0.03 -0.03c0.02,-0.02 0.02,-0.06 0,-0.08l-0.48 -0.48c-0.01,-0.01 -0.03,-0.02 -0.04,-0.02l-0 0c-0.02,0 -0.03,0.01 -0.04,0.02l-0.47 0.48c-0.01,0.01 -0.02,0.03 -0.02,0.04 0,0.02 0.01,0.03 0.02,0.04z"/>
    </g>
   </g>
   <g>
   </g>
   <g>
   </g>
   <g>
   </g>
   <g>
   </g>
   <g>
   </g>
   <g>
   </g>
   <g>
   </g>
   <g>
   </g>
   <g>
   </g>
   <g>
   </g>
   <g>
   </g>
   <g>
   </g>
   <g>
   </g>
   <g>
   </g>
   <g>
   </g>
  </g>
 </g>
</svg>
