<?xml version="1.0" encoding="utf-8"?>
<svg viewBox="176.813 256.657 11.069 9.627" xmlns="http://www.w3.org/2000/svg">
  <g id="Слой_x0020_1" transform="matrix(5.565046, -0.007717, 0.007717, 5.565046, 176.812653, 256.65387)" style="">
    <path class="fil0" d="M 1.902 0.019 C 1.812 -0.031 1.7 0.05 1.64 0.11 C 1.51 0.24 1.39 0.39 1.27 0.53 C 1.13 0.68 1 0.83 0.86 0.98 C 0.78 1.06 0.69 1.15 0.63 1.25 C 0.51 1.13 0.4 1 0.26 0.89 C 0.16 0.81 0 0.76 0 0.94 C 0.01 1.18 0.22 1.43 0.37 1.59 C 0.44 1.66 0.52 1.73 0.62 1.73 C 0.74 1.74 0.86 1.59 0.94 1.51 C 1.07 1.37 1.17 1.22 1.29 1.08 C 1.44 0.9 1.59 0.71 1.74 0.53 C 1.83 0.41 2.132 0.148 1.902 0.018 L 1.902 0.019 Z" style="fill: rgb(35, 163, 40);"/>
  </g>
</svg>