<?xml version="1.0" encoding="utf-8"?>
<svg viewBox="159.636 206.328 37.704 22.227" xmlns="http://www.w3.org/2000/svg">
  <g id="Слой_x0020_1" transform="matrix(7.124134, 0, 0, 7.124134, 159.440216, 206.256973)" style="">
    <g id="_2230434167552">
      <g>
        <g>
          <path class="fil0" d="M 5.24 0.26 L 5.047 0.076 C 4.997 0.026 4.91 0.01 4.84 0.01 C 4.76 0.01 4.69 0.04 4.64 0.09 L 2.66 2.07 L 0.68 0.09 C 0.63 0.04 0.55 0.01 0.48 0.01 C 0.4 0.01 0.33 0.04 0.28 0.09 L 0.11 0.26 C 0 0.37 0 0.56 0.11 0.67 L 2.47 3.04 C 2.52 3.09 2.6 3.13 2.68 3.13 C 2.76 3.13 2.83 3.09 2.88 3.04 L 5.24 0.68 C 5.29 0.63 5.32 0.55 5.32 0.47 C 5.32 0.39 5.29 0.32 5.24 0.26 Z" style="fill: rgb(255, 255, 255);"/>
        </g>
      </g>
      <g/>
      <g/>
      <g/>
      <g/>
      <g/>
      <g/>
      <g/>
      <g/>
      <g/>
      <g/>
      <g/>
      <g/>
      <g/>
      <g/>
      <g/>
    </g>
  </g>
</svg>