<?xml version="1.0" encoding="UTF-8"?>
<!DOCTYPE svg PUBLIC "-//W3C//DTD SVG 1.1//EN" "http://www.w3.org/Graphics/SVG/1.1/DTD/svg11.dtd">
<!-- Creator: CorelDRAW 2018 (64-Bit) -->
<svg xmlns="http://www.w3.org/2000/svg" xml:space="preserve" width="18.5932mm" height="18.9888mm" version="1.1" style="shape-rendering:geometricPrecision; text-rendering:geometricPrecision; image-rendering:optimizeQuality; fill-rule:evenodd; clip-rule:evenodd"
viewBox="0 0 91.67 93.62"
 xmlns:xlink="http://www.w3.org/1999/xlink"
 xmlns:svgjs="http://svgjs.com/svgjs">
 <defs>
  <style type="text/css">
   <![CDATA[
    .fil0 {fill:#357EF3}
   ]]>
  </style>
 </defs>
 <g id="Слой_x0020_1">
  <metadata id="CorelCorpID_0Corel-Layer"/>
  <g id="_2230435867184">
   <g>
    <g id="_3092C_Account2C_profile2C_user2C_person2C_people">
     <g id="XMLID_15_">
      <g id="XMLID_16_">
       <g id="XMLID_34_">
        <path id="XMLID_35_" class="fil0" d="M46.03 52.66c-6.24,0 -11.31,-5.07 -11.31,-11.31 0,-6.24 5.07,-11.31 11.31,-11.31 6.24,0 11.31,5.07 11.31,11.31 0,6.24 -5.07,11.31 -11.31,11.31zm0 -18.72c-4.09,0 -7.41,3.32 -7.41,7.41 0,4.09 3.32,7.41 7.41,7.41 4.09,0 7.41,-3.32 7.41,-7.41 0,-4.09 -3.32,-7.41 -7.41,-7.41z" data-original="#000000"/>
       </g>
       <g id="XMLID_32_">
        <path id="XMLID_33_" class="fil0" d="M67.48 63.58c-0.6,0 -1.2,-0.28 -1.58,-0.8 -4.62,-6.34 -12.05,-10.12 -19.87,-10.12 -7.82,0 -15.25,3.78 -19.87,10.12 -0.63,0.87 -1.85,1.06 -2.72,0.43 -0.87,-0.63 -1.06,-1.85 -0.43,-2.72 5.35,-7.34 13.96,-11.72 23.02,-11.72 9.07,0 17.67,4.38 23.02,11.72 0.63,0.87 0.44,2.09 -0.43,2.72 -0.35,0.25 -0.75,0.37 -1.15,0.37l0 0z" data-original="#000000"/>
       </g>
       <g id="XMLID_28_">
        <path id="XMLID_29_" class="fil0" d="M46.03 74.51c-15.7,0 -28.48,-12.77 -28.48,-28.48 0,-15.7 12.77,-28.48 28.48,-28.48 15.7,0 28.48,12.77 28.48,28.48 0,15.7 -12.77,28.48 -28.48,28.48zm0 -53.05c-13.55,0 -24.58,11.02 -24.58,24.58 0,13.55 11.02,24.58 24.58,24.58 13.55,0 24.58,-11.02 24.58,-24.58 0,-13.55 -11.02,-24.58 -24.58,-24.58z" data-original="#000000"/>
       </g>
       <g id="XMLID_24_">
        <path id="XMLID_25_" class="fil0" d="M46.03 90.11c-11.77,0 -22.84,-4.59 -31.17,-12.91 -8.33,-8.33 -12.91,-19.39 -12.91,-31.17 0,-11.77 4.59,-22.84 12.91,-31.17 8.33,-8.33 19.39,-12.91 31.17,-12.91 11.77,0 22.84,4.59 31.17,12.91 8.33,8.33 12.91,19.39 12.91,31.17 0,11.77 -4.59,22.84 -12.91,31.17 -8.33,8.33 -19.39,12.91 -31.17,12.91zm0 -84.26c-22.15,0 -40.18,18.02 -40.18,40.18 0,22.15 18.02,40.18 40.18,40.18 22.15,0 40.18,-18.02 40.18,-40.18 0,-22.15 -18.02,-40.18 -40.18,-40.18z" data-original="#000000"/>
       </g>
       <g id="XMLID_17_">
        <circle id="XMLID_23_" class="fil0" cx="88.74" cy="14.63" r="2.93" data-original="#000000"/>
        <circle id="XMLID_22_" class="fil0" cx="2.93" cy="77.04" r="2.93" data-original="#000000"/>
        <circle id="XMLID_21_" class="fil0" cx="5.85" cy="9.75" r="1.95" data-original="#000000"/>
        <circle id="XMLID_20_" class="fil0" cx="74.12" cy="1.95" r="1.95" data-original="#000000"/>
        <circle id="XMLID_19_" class="fil0" cx="85.82" cy="79.97" r="1.95" data-original="#000000"/>
        <circle id="XMLID_18_" class="fil0" cx="17.55" cy="91.67" r="1.95" data-original="#000000"/>
       </g>
      </g>
     </g>
    </g>
   </g>
  </g>
 </g>
</svg>
