<?xml version="1.0" encoding="UTF-8"?>
<!DOCTYPE svg PUBLIC "-//W3C//DTD SVG 1.1//EN" "http://www.w3.org/Graphics/SVG/1.1/DTD/svg11.dtd">
<!-- Creator: CorelDRAW 2018 (64-Bit) -->
<svg xmlns="http://www.w3.org/2000/svg" xml:space="preserve" width="18.9887mm" height="19.3844mm" version="1.1" style="shape-rendering:geometricPrecision; text-rendering:geometricPrecision; image-rendering:optimizeQuality; fill-rule:evenodd; clip-rule:evenodd"
viewBox="0 0 111.98 114.31"
 xmlns:xlink="http://www.w3.org/1999/xlink"
 xmlns:svgjs="http://svgjs.com/svgjs">
 <defs>
  <style type="text/css">
   <![CDATA[
    .fil0 {fill:#357EF3}
   ]]>
  </style>
 </defs>
 <g id="Слой_x0020_1">
  <metadata id="CorelCorpID_0Corel-Layer"/>
  <g id="_2230435850320">
   <g>
    <g id="_3402C_Check2C_device2C_mobile2C_multimedia2C_phone">
     <g id="XMLID_15_">
      <g id="XMLID_16_">
       <g id="XMLID_37_">
        <path id="XMLID_38_" class="fil0" d="M80.03 114.31l-48.08 0c-6.04,0 -10.95,-4.91 -10.95,-10.95l0 -92.41c0,-6.04 4.91,-10.95 10.95,-10.95l48.08 0c6.04,0 10.95,4.91 10.95,10.95l0 92.41c0,6.04 -4.91,10.95 -10.95,10.95l0 0zm-48.08 -109.64c-3.47,0 -6.29,2.82 -6.29,6.29l0 92.41c0,3.47 2.82,6.29 6.29,6.29l48.08 0c3.47,0 6.29,-2.82 6.29,-6.29l0 -92.41c0,-3.47 -2.82,-6.29 -6.29,-6.29l-48.08 0z" data-original="#000000"/>
       </g>
       <g id="XMLID_35_">
        <path id="XMLID_36_" class="fil0" d="M88.65 18.66l-65.32 0c-1.29,0 -2.33,-1.04 -2.33,-2.33 0,-1.29 1.04,-2.33 2.33,-2.33l65.32 0c1.29,0 2.33,1.04 2.33,2.33 0,1.29 -1.04,2.33 -2.33,2.33z" data-original="#000000"/>
       </g>
       <g id="XMLID_33_">
        <path id="XMLID_34_" class="fil0" d="M88.65 100.31l-65.32 0c-1.29,0 -2.33,-1.04 -2.33,-2.33 0,-1.29 1.04,-2.33 2.33,-2.33l65.32 0c1.29,0 2.33,1.04 2.33,2.33 0,1.29 -1.04,2.33 -2.33,2.33z" data-original="#000000"/>
       </g>
       <circle id="XMLID_32_" class="fil0" cx="108.48" cy="15.16" r="3.5" data-original="#000000"/>
       <circle id="XMLID_31_" class="fil0" cx="8.16" cy="89.82" r="3.5" data-original="#000000"/>
       <circle id="XMLID_30_" class="fil0" cx="2.33" cy="44.32" r="2.33" data-original="#000000"/>
       <circle id="XMLID_29_" class="fil0" cx="102.65" cy="46.66" r="2.33" data-original="#000000"/>
       <circle id="XMLID_28_" class="fil0" cx="14" cy="18.66" r="2.33" data-original="#000000"/>
       <circle id="XMLID_27_" class="fil0" cx="104.98" cy="95.65" r="2.33" data-original="#000000"/>
       <g id="XMLID_25_">
        <path id="XMLID_26_" class="fil0" d="M53.66 90.98c-12.86,0 -23.33,-10.46 -23.33,-23.33 0,-12.86 10.46,-23.33 23.33,-23.33 5.93,0 11.59,2.23 15.92,6.28 0.94,0.88 0.99,2.36 0.11,3.3 -0.88,0.94 -2.36,0.99 -3.3,0.11 -3.47,-3.24 -7.99,-5.02 -12.74,-5.02 -10.29,0 -18.66,8.37 -18.66,18.66 0,10.29 8.37,18.66 18.66,18.66 10.29,0 18.66,-8.37 18.66,-18.66 0,-2.28 -0.41,-4.51 -1.21,-6.62 -0.46,-1.2 0.15,-2.55 1.35,-3.01 1.2,-0.46 2.55,0.15 3.01,1.35 1,2.65 1.51,5.43 1.51,8.28 0,12.86 -10.46,23.33 -23.33,23.33z" data-original="#000000"/>
       </g>
       <g id="XMLID_21_">
        <path id="XMLID_22_" class="fil0" d="M56.51 79.32c-0.6,0 -1.19,-0.23 -1.65,-0.68l-11.55 -11.55c-1.32,-1.32 -2.05,-3.08 -2.05,-4.95 0,-1.87 0.73,-3.63 2.05,-4.95 2.73,-2.73 7.17,-2.73 9.9,-0l3.3 3.3 13.2 -13.2c2.73,-2.73 7.17,-2.73 9.9,0 2.73,2.73 2.73,7.17 0,9.9l-21.45 21.44c-0.46,0.46 -1.05,0.68 -1.65,0.68zm-8.25 -19.51c-0.6,0 -1.19,0.23 -1.65,0.68 -0.91,0.91 -0.91,2.39 0,3.3l9.9 9.9 19.8 -19.8c0.91,-0.91 0.91,-2.39 0,-3.3 -0.91,-0.91 -2.39,-0.91 -3.3,0l-14.85 14.85c-0.44,0.44 -1.03,0.68 -1.65,0.68 -0.62,0 -1.21,-0.25 -1.65,-0.68l-4.95 -4.95c-0.45,-0.45 -1.05,-0.68 -1.65,-0.68l-0 0z" data-original="#000000"/>
       </g>
       <g id="XMLID_19_">
        <path id="XMLID_20_" class="fil0" d="M51.32 27.99l-18.66 0c-1.29,0 -2.33,-1.04 -2.33,-2.33 0,-1.29 1.04,-2.33 2.33,-2.33l18.66 0c1.29,0 2.33,1.04 2.33,2.33 0,1.29 -1.04,2.33 -2.33,2.33l0 0z" data-original="#000000"/>
       </g>
       <g id="XMLID_17_">
        <path id="XMLID_18_" class="fil0" d="M51.32 37.33l-18.66 0c-1.29,0 -2.33,-1.04 -2.33,-2.33 0,-1.29 1.04,-2.33 2.33,-2.33l18.66 0c1.29,0 2.33,1.04 2.33,2.33 0,1.29 -1.04,2.33 -2.33,2.33z" data-original="#000000"/>
       </g>
      </g>
     </g>
    </g>
   </g>
  </g>
 </g>
</svg>
