<?xml version="1.0" encoding="UTF-8"?>
<!DOCTYPE svg PUBLIC "-//W3C//DTD SVG 1.1//EN" "http://www.w3.org/Graphics/SVG/1.1/DTD/svg11.dtd">
<!-- Creator: CorelDRAW 2018 (64-Bit) -->
<svg xmlns="http://www.w3.org/2000/svg" xml:space="preserve" width="18.6598mm" height="18.6598mm" version="1.1" style="shape-rendering:geometricPrecision; text-rendering:geometricPrecision; image-rendering:optimizeQuality; fill-rule:evenodd; clip-rule:evenodd"
viewBox="0 0 16.41 16.41"
 xmlns:xlink="http://www.w3.org/1999/xlink">
 <defs>
  <style type="text/css">
   <![CDATA[
    .fil0 {fill:white}
   ]]>
  </style>
 </defs>
 <g id="Слой_x0020_1">
  <metadata id="CorelCorpID_0Corel-Layer"/>
  <g id="_2230252580016">
   <g id="_863932400">
    <g>
     <g id="_356._Play">
      <g>
       <path class="fil0" d="M15.31 4.1c-2.26,-3.93 -7.28,-5.27 -11.21,-3 -3.93,2.26 -5.27,7.28 -3,11.21 2.26,3.93 7.28,5.27 11.21,3 3.93,-2.26 5.27,-7.28 3,-11.21zm-3.82 9.79c-3.14,1.81 -7.15,0.74 -8.97,-2.4 -1.81,-3.14 -0.74,-7.15 2.4,-8.97 3.14,-1.81 7.15,-0.74 8.97,2.4 1.81,3.14 0.74,7.15 -2.4,8.97zm-0.33 -6.02l-4.3 -2.51c-0.39,-0.23 -0.71,-0.05 -0.71,0.41l0.02 4.97c0,0.45 0.32,0.64 0.71,0.41l4.26 -2.46c0.39,-0.23 0.39,-0.6 0,-0.82l0 0z"/>
      </g>
     </g>
    </g>
    <g>
    </g>
    <g>
    </g>
    <g>
    </g>
    <g>
    </g>
    <g>
    </g>
    <g>
    </g>
    <g>
    </g>
    <g>
    </g>
    <g>
    </g>
    <g>
    </g>
    <g>
    </g>
    <g>
    </g>
    <g>
    </g>
    <g>
    </g>
    <g>
    </g>
   </g>
  </g>
 </g>
</svg>
