<?xml version="1.0" encoding="UTF-8"?>
<!DOCTYPE svg PUBLIC "-//W3C//DTD SVG 1.1//EN" "http://www.w3.org/Graphics/SVG/1.1/DTD/svg11.dtd">
<!-- Creator: CorelDRAW 2018 (64-Bit) -->
<svg xmlns="http://www.w3.org/2000/svg" xml:space="preserve" width="5.7284mm" height="5.7284mm" version="1.1" style="shape-rendering:geometricPrecision; text-rendering:geometricPrecision; image-rendering:optimizeQuality; fill-rule:evenodd; clip-rule:evenodd"
viewBox="0 0 1.76 1.76"
 xmlns:xlink="http://www.w3.org/1999/xlink">
 <defs>
  <style type="text/css">
   <![CDATA[
    .fil0 {fill:#23A328}
    .fil1 {fill:white}
   ]]>
  </style>
 </defs>
 <g id="Слой_x0020_1">
  <metadata id="CorelCorpID_0Corel-Layer"/>
  <circle class="fil0" cx="0.88" cy="0.88" r="0.88"/>
  <path class="fil1" d="M0.6 0.83l0.23 0 0 -0.23c0,-0.03 0.02,-0.05 0.05,-0.05l0 0c0.03,0 0.05,0.02 0.05,0.05l0 0.23 0.23 0c0.03,0 0.05,0.02 0.05,0.05l0 0c0,0.03 -0.02,0.05 -0.05,0.05l-0.23 0 0 0.23c0,0.03 -0.02,0.05 -0.05,0.05l-0 0c-0.03,0 -0.05,-0.02 -0.05,-0.05l0 -0.23 -0.23 0c-0.03,0 -0.05,-0.02 -0.05,-0.05l0 -0c0,-0.03 0.02,-0.05 0.05,-0.05z"/>
 </g>
</svg>
