<svg xmlns="http://www.w3.org/2000/svg">
	
<!-- ===== 5. INSTALL SECTION ===== -->

	<!-- play -->
	<symbol id="play" viewBox="0 0 16.41 16.41">
		<path d="M15.31 4.1c-2.26,-3.93 -7.28,-5.27 -11.21,-3 -3.93,2.26 -5.27,7.28 -3,11.21 2.26,3.93 7.28,5.27 11.21,3 3.93,-2.26 5.27,-7.28 3,-11.21zm-3.82 9.79c-3.14,1.81 -7.15,0.74 -8.97,-2.4 -1.81,-3.14 -0.74,-7.15 2.4,-8.97 3.14,-1.81 7.15,-0.74 8.97,2.4 1.81,3.14 0.74,7.15 -2.4,8.97zm-0.33 -6.02l-4.3 -2.51c-0.39,-0.23 -0.71,-0.05 -0.71,0.41l0.02 4.97c0,0.45 0.32,0.64 0.71,0.41l4.26 -2.46c0.39,-0.23 0.39,-0.6 0,-0.82l0 0z"/>
	</symbol>

</svg>