<?xml version="1.0" encoding="utf-8"?>
<svg viewBox="-14.461 10.222 11.633 11.633" xmlns="http://www.w3.org/2000/svg">
  <defs>
    <style type="text/css">
   
    .fil0 {fill:#116ED6}
    .fil1 {fill:white}
   
  </style>
  </defs>
  <g id="Слой_x0020_1" style="" transform="matrix(3.826539, 0, 0, 3.826539, -14.460913, 10.221688)">
    <circle class="fil0" cx="1.52" cy="1.52" r="1.52"/>
    <g id="_2230258042000">
      <g>
        <g>
          <path class="fil1" d="M 0.99 1.79 L 1.025 1.822 C 1.035 1.832 1.055 1.841 1.065 1.841 C 1.085 1.841 1.1 1.83 1.11 1.82 L 1.51 1.42 L 1.91 1.82 C 1.92 1.83 1.94 1.84 1.95 1.84 C 1.97 1.84 1.98 1.83 1.99 1.82 L 2.02 1.79 C 2.04 1.77 2.04 1.73 2.02 1.71 L 1.54 1.23 C 1.53 1.22 1.51 1.21 1.5 1.21 C 1.48 1.21 1.47 1.22 1.46 1.23 L 0.99 1.71 C 0.98 1.72 0.97 1.74 0.97 1.75 C 0.97 1.77 0.98 1.78 0.99 1.79 Z"/>
        </g>
      </g>
      <g/>
      <g/>
      <g/>
      <g/>
      <g/>
      <g/>
      <g/>
      <g/>
      <g/>
      <g/>
      <g/>
      <g/>
      <g/>
      <g/>
      <g/>
    </g>
  </g>
</svg>